<?xml version="1.0" encoding="UTF-8"?>
<svg version="1.1" xmlns="http://www.w3.org/2000/svg" width="238" height="228">
<path d="M0 0 C78.54 0 157.08 0 238 0 C238 75.24 238 150.48 238 228 C159.46 228 80.92 228 0 228 C0 152.76 0 77.52 0 0 Z " fill="transparent" transform="translate(0,0)"/>
<path d="M0 0 C-1.71916317 4.03456789 -4.45829305 7.24345495 -7.1875 10.625 C-20.798517 27.74155013 -32.51694809 46.49335074 -42.75 65.8125 C-43.32234375 66.88636963 -43.32234375 66.88636963 -43.90625 67.98193359 C-45.97411267 71.90377349 -47.77962806 75.8486708 -49.5 79.9375 C-51.357386 83.735248 -51.357386 83.735248 -54.01953125 84.83203125 C-55.55540566 85.11199473 -57.10141744 85.34087697 -58.65234375 85.51953125 C-64.05807744 86.62586277 -68.25576735 91.15239897 -72 95 C-72.4125 94.071875 -72.825 93.14375 -73.25 92.1875 C-75.01262147 88.97701089 -75.92996505 87.83663494 -79 86 C-83.36445818 85.20885954 -88.009095 84.95824739 -92.015625 87.0546875 C-94.90204403 89.42267205 -96.80281939 91.43382256 -97.2734375 95.171875 C-97.52506227 101.30891647 -97.52506227 101.30891647 -94.6875 106.5625 C-90.54490559 110.31973679 -87.42608484 110.18710637 -82 110 C-80.32442621 109.71479595 -78.65182755 109.40044304 -77 109 C-76.78635555 114.34111123 -76.64966543 119.06429741 -79 124 C-79.70125 124.474375 -80.4025 124.94875 -81.125 125.4375 C-83.38620589 126.96808414 -83.38620589 126.96808414 -83.5 130.4375 C-83.27853604 133.95965466 -83.27853604 133.95965466 -81.4375 136.25 C-74.49852015 141.23183169 -68.41219406 141.80378294 -60 141 C-56.81523941 140.33736433 -53.97854931 139.29456383 -51 138 C-50.18789062 137.68289062 -49.37578125 137.36578125 -48.5390625 137.0390625 C-41.30874233 133.9022159 -36.73109719 129.22462074 -32 123 C-31.52175781 122.37351563 -31.04351562 121.74703125 -30.55078125 121.1015625 C-27.72942233 116.56758922 -27.95803218 112.77254458 -28.1875 107.5 C-28.37891645 99.41265503 -28.37891645 99.41265503 -25.1875 95.875 C-23.79728955 94.57728339 -22.40069043 93.28639799 -21 92 C-19.19988913 89.95566677 -17.43274386 87.90220792 -15.6875 85.8125 C-14.98004639 84.97561646 -14.98004639 84.97561646 -14.25830078 84.12182617 C-9.77295057 78.79499685 -5.51241649 73.30900835 -1.31982422 67.74951172 C0.07261037 65.9037503 1.47183331 64.06324708 2.87109375 62.22265625 C12.3049618 49.77075318 21.48794692 37.10408172 30 24 C37.35918945 26.85825662 42.02073143 36.20848067 45.1953125 43.10546875 C45.46085938 43.73066406 45.72640625 44.35585937 46 45 C46.28617188 45.65613281 46.57234375 46.31226563 46.8671875 46.98828125 C51.570646 58.52295327 51.89789314 74.73448101 48.03515625 86.57421875 C44.3977895 95.09801028 39.02256961 100.78943899 30.875 105.1328125 C25.84428546 106.65022911 20.61618718 106.39826998 15.39257812 106.47851562 C10.22312761 106.63727778 6.44321148 107.05871916 2 110 C-0.05698068 113.08547101 -0.2742059 113.80869624 -0.25 117.3125 C-0.25515625 118.05113281 -0.2603125 118.78976563 -0.265625 119.55078125 C-0.07838102 122.11803525 -0.07838102 122.11803525 0.9921875 124.890625 C2.86138854 130.65761735 3.06504097 137.3712077 1.34765625 143.22265625 C-2.3677968 150.4781547 -10.55682462 154.53505231 -18 157 C-40.90003826 161.32398238 -62.23351134 155.87281386 -81.578125 143.328125 C-99.61224547 130.85881885 -113.26425381 113.16157227 -117.47875977 91.265625 C-121.22755676 69.2394216 -117.89061633 47.6091892 -105 29 C-90.01672316 10.17275382 -70.85246816 -2.33311245 -46.75 -5.375 C-30.29945881 -6.97277308 -15.53711236 -5.76692819 0 0 Z " fill="white" transform="translate(148,54)"/>
<path d="M0 0 C7.35918945 2.85825662 12.02073143 12.20848067 15.1953125 19.10546875 C15.59363281 20.04326172 15.59363281 20.04326172 16 21 C16.28617187 21.65613281 16.57234375 22.31226562 16.8671875 22.98828125 C21.570646 34.52295327 21.89789314 50.73448101 18.03515625 62.57421875 C14.3977895 71.09801028 9.02256961 76.78943899 0.875 81.1328125 C-4.15571454 82.65022911 -9.38381282 82.39826998 -14.60742188 82.47851562 C-19.77687239 82.63727778 -23.55678852 83.05871916 -28 86 C-30.05698068 89.08547101 -30.2742059 89.80869624 -30.25 93.3125 C-30.25515625 94.05113281 -30.2603125 94.78976563 -30.265625 95.55078125 C-30.07838102 98.11803525 -30.07838102 98.11803525 -29.0078125 100.890625 C-27.13861146 106.65761735 -26.93495903 113.3712077 -28.65234375 119.22265625 C-32.3677968 126.4781547 -40.55682462 130.53505231 -48 133 C-69.08602128 136.98145992 -91.11582774 133.10686246 -109 121 C-109.33 120.34 -109.66 119.68 -110 119 C-109.67 118.01 -109.34 117.02 -109 116 C-108.0925 116.165 -107.185 116.33 -106.25 116.5 C-97.35913467 117.72384381 -89.28244212 117.59978933 -81 114 C-80.18789062 113.68289062 -79.37578125 113.36578125 -78.5390625 113.0390625 C-71.30874233 109.9022159 -66.73109719 105.22462074 -62 99 C-61.52175781 98.37351562 -61.04351562 97.74703125 -60.55078125 97.1015625 C-57.72942233 92.56758922 -57.95803218 88.77254458 -58.1875 83.5 C-58.37891645 75.41265503 -58.37891645 75.41265503 -55.1875 71.875 C-53.79728955 70.57728339 -52.40069043 69.28639799 -51 68 C-49.19988913 65.95566677 -47.43274386 63.90220792 -45.6875 61.8125 C-44.98004639 60.97561646 -44.98004639 60.97561646 -44.25830078 60.12182617 C-39.77295057 54.79499685 -35.51241649 49.30900835 -31.31982422 43.74951172 C-29.92738963 41.9037503 -28.52816669 40.06324708 -27.12890625 38.22265625 C-17.6950382 25.77075318 -8.51205308 13.10408172 0 0 Z " fill="white" transform="translate(178,78)"/>
<path d="M0 0 C2.56964455 3.85446683 2.88034145 6.55773387 2 11 C-2.10528754 20.77646917 -7.73800207 29.63194809 -13.6875 38.375 C-14.48584471 39.55994567 -15.2840197 40.74500571 -16.08203125 41.93017578 C-22.10620146 50.84007716 -28.39752631 59.51075566 -35 68 C-35.86820094 69.130733 -36.73540053 70.26223561 -37.6015625 71.39453125 C-40.0586115 74.60339202 -42.52803134 77.80262511 -45 81 C-46.83461419 83.3740143 -48.66766761 85.74922431 -50.5 88.125 C-50.92168457 88.66987061 -51.34336914 89.21474121 -51.77783203 89.77612305 C-53.60270076 92.14231713 -55.34133526 94.5120029 -57 97 C-61.0312145 96.433553 -63.2988659 94.38420405 -66.3125 91.75 C-67.66794922 90.59757812 -67.66794922 90.59757812 -69.05078125 89.421875 C-71 87 -71 87 -70.77001953 84.62182617 C-69.99577548 81.98561599 -69.04016564 79.9794328 -67.62890625 77.62890625 C-67.14236572 76.81470215 -66.6558252 76.00049805 -66.15454102 75.16162109 C-65.36648071 73.87505615 -65.36648071 73.87505615 -64.5625 72.5625 C-64.01972412 71.66869629 -63.47694824 70.77489258 -62.91772461 69.85400391 C-58.68156457 62.95187226 -54.16890591 56.33527938 -49.34667969 49.83398438 C-47.85729258 47.80565298 -46.3997964 45.75662064 -44.9453125 43.703125 C-38.55586729 34.70645348 -31.91105006 26.01137357 -24.87890625 17.5078125 C-22.52856406 14.66486538 -20.27756668 11.76267672 -18.0625 8.8125 C-12.92023092 2.12243351 -8.72141076 -1.86887373 0 0 Z " fill="white" transform="translate(189,30)"/>
<path d="M0 0 C3.2826932 1.49076434 5.93077441 3.38620321 8.75 5.625 C9.54921875 6.25664062 10.3484375 6.88828125 11.171875 7.5390625 C11.77515625 8.02117187 12.3784375 8.50328125 13 9 C12.41828163 12.16138269 11.54664173 13.83356018 9.3125 16.12890625 C8.77882812 16.68900391 8.24515625 17.24910156 7.6953125 17.82617188 C7.13585937 18.39916016 6.57640625 18.97214844 6 19.5625 C4.8915162 20.70546429 3.78716035 21.8524503 2.6875 23.00390625 C2.19636719 23.50736572 1.70523438 24.0108252 1.19921875 24.52954102 C-0.23309375 26.10842391 -0.23309375 26.10842391 -1 29 C-0.505 29.99 -0.505 29.99 0 31 C0.69518301 38.40768778 0.65775066 44.94230743 -4 51 C-9.64312197 57.08008938 -17.30382129 62.58860932 -25.8125 63.203125 C-26.864375 63.21859375 -27.91625 63.2340625 -29 63.25 C-30.5778125 63.28867188 -30.5778125 63.28867188 -32.1875 63.328125 C-35 63 -35 63 -36.875 61.484375 C-37.24625 60.99453125 -37.6175 60.5046875 -38 60 C-37.31744141 59.31164062 -37.31744141 59.31164062 -36.62109375 58.609375 C-33.81074984 54.0857371 -33.4861159 48.81069162 -32.62695312 43.6171875 C-31.07466987 34.96596869 -28.6374618 28.21042536 -21.23828125 23.0546875 C-17.52223559 21.30367122 -14.00696801 21.499129 -10 22 C-9.75507812 21.00871094 -9.51015625 20.01742187 -9.2578125 18.99609375 C-8.02824932 14.69262262 -6.04005486 10.96036378 -3.875 7.0625 C-3.50246094 6.37865234 -3.12992188 5.69480469 -2.74609375 4.99023438 C-1.83692643 3.32342761 -0.91933645 1.66121958 0 0 Z " fill="white" transform="translate(112,124)"/>
<path d="M0 0 C3.8026029 2.0050088 5.61790841 3.42686262 8 7 C8.57632878 11.83517391 8.61319871 16.45086641 6.8125 21 C3.27264585 24.90604596 0.35518939 26.2132916 -4.875 26.5625 C-9.55174896 26.3877336 -12.39383897 25.2897162 -15.71484375 21.9765625 C-18.15910386 18.21730531 -18.36436765 14.38670072 -18 10 C-16.7578194 6.05424985 -15.43128718 4.39021221 -12.375 1.625 C-8.06829477 -0.44859882 -4.69809562 -0.84885091 0 0 Z " fill="#6348FA" transform="translate(67,96)"/>
<path d="M0 0 C3.96885812 2.31516723 6.53707438 4.61122315 8 9 C8.34253849 14.30934666 8.54241898 17.74909723 5 22 C1.73416458 24.81013746 -0.7849487 26.25994127 -5.0625 26.4375 C-10.25034276 25.86107303 -12.45459772 24.33656413 -16.3125 21 C-18.91486329 16.37357638 -19.19258383 12.16050162 -18 7 C-13.82969926 0.45150073 -7.47312794 -1.96533559 0 0 Z " fill="#6348FA" transform="translate(100,68)"/>
<path d="M0 0 C2.31 0.66 4.62 1.32 7 2 C6.01 2.495 6.01 2.495 5 3 C5 3.99 5 4.98 5 6 C3.35 5.67 1.7 5.34 0 5 C-0.5625 3.0625 -0.5625 3.0625 -1 1 C-0.67 0.67 -0.34 0.34 0 0 Z " fill="white" transform="translate(64,191)"/>
<path d="M0 0 C1.32 0 2.64 0 4 0 C4 0.66 4 1.32 4 2 C4.66 2.33 5.32 2.66 6 3 C5.01 3.99 4.02 4.98 3 6 C1.68 5.34 0.36 4.68 -1 4 C-0.67 2.68 -0.34 1.36 0 0 Z " fill="white" transform="translate(69,194)"/>
</svg>
