<?xml version="1.0" encoding="UTF-8"?>
<svg version="1.1" xmlns="http://www.w3.org/2000/svg" width="200" height="222">
<path d="M0 0 C66 0 132 0 200 0 C200 73.26 200 146.52 200 222 C134 222 68 222 0 222 C0 148.74 0 75.48 0 0 Z " fill="transparent" transform="translate(0,0)"/>
<path d="M0 0 C0.84055435 -0.00619858 1.6811087 -0.01239716 2.5471344 -0.01878357 C4.31795092 -0.02586071 6.08883427 -0.02274459 7.85961914 -0.01000977 C10.55545665 0.00384996 13.24781487 -0.0302346 15.94335938 -0.06835938 C17.67057376 -0.06931079 19.39779245 -0.06745056 21.125 -0.0625 C21.92312607 -0.07575821 22.72125214 -0.08901642 23.54356384 -0.10267639 C29.35581563 -0.00694211 32.93449478 1.51579124 37.12890625 5.56640625 C40.58767216 9.70122572 40.55312776 13.76007101 40.4921875 18.94140625 C40.49415886 20.17746361 40.49415886 20.17746361 40.49617004 21.43849182 C40.49457519 24.14814026 40.46918625 26.85690817 40.44140625 29.56640625 C40.43136971 31.46997014 40.42144276 33.3735346 40.41162109 35.27709961 C40.29239347 51.00794302 39.55015488 66.66974954 38.5460968 82.36523438 C38.16345778 88.53489763 37.91584549 94.70559266 37.69140625 100.8828125 C37.5809633 103.7255306 37.46925797 106.56819696 37.35736084 109.41085815 C37.28883274 111.25268724 37.22677594 113.09476939 37.17144775 114.93704224 C37.09377953 117.49416192 36.99268286 120.04938843 36.88671875 122.60546875 C36.86996094 123.36924332 36.85320312 124.13301788 36.8359375 124.91993713 C36.59072655 130.08591429 36.59072655 130.08591429 34.26904297 132.50146484 C29.62427178 134.81272333 25.30206144 134.76041837 20.2265625 134.8046875 C19.35245224 134.81275925 18.47834198 134.82083099 17.57774353 134.82914734 C15.72933935 134.84297148 13.88090982 134.8537011 12.0324707 134.86157227 C9.20540274 134.87882085 6.37949375 134.92272494 3.55273438 134.96679688 C1.75651901 134.97692111 -0.03970628 134.98543805 -1.8359375 134.9921875 C-2.68083237 135.00969559 -3.52572723 135.02720367 -4.39622498 135.04524231 C-10.26961646 135.02351491 -10.26961646 135.02351491 -13.37329102 132.66479492 C-16.1157528 128.82266631 -16.15489382 125.52656662 -16.37109375 120.93359375 C-16.41142731 120.1339772 -16.45176086 119.33436066 -16.49331665 118.51051331 C-16.62563312 115.82107477 -16.74920202 113.13133655 -16.87109375 110.44140625 C-16.91433777 109.51256622 -16.95758179 108.5837262 -17.00213623 107.6267395 C-17.79128828 90.42486501 -18.20089557 73.22065379 -18.49609375 56.00390625 C-18.51655762 54.81738464 -18.53702148 53.63086304 -18.55810547 52.40838623 C-18.6521387 46.79951741 -18.73438105 41.19088679 -18.79394531 35.58154297 C-18.83460833 31.77365507 -18.91297368 27.97068487 -19.03417969 24.16455078 C-19.07107298 22.56022387 -19.10786453 20.95589461 -19.14453125 19.3515625 C-19.17664703 18.65300644 -19.20876282 17.95445038 -19.24185181 17.23472595 C-19.32841368 12.05767873 -18.06323331 8.53686925 -14.87109375 4.56640625 C-10.07753278 0.29470565 -6.12681657 -0.03797813 0 0 Z " fill="white" transform="translate(57.87109375,67.43359375)"/>
<path d="M0 0 C0.87760986 -0.00315216 1.75521973 -0.00630432 2.65942383 -0.009552 C3.61357178 -0.00752777 4.56771973 -0.00550354 5.55078125 -0.00341797 C6.52362061 -0.00437469 7.49645996 -0.00533142 8.4987793 -0.00631714 C10.56005925 -0.00699905 12.62134133 -0.00514399 14.68261719 -0.00097656 C17.84965813 0.00437153 21.01655725 -0.00092119 24.18359375 -0.00732422 C26.1809899 -0.00666344 28.17838596 -0.00538228 30.17578125 -0.00341797 C31.1299292 -0.0054422 32.08407715 -0.00746643 33.06713867 -0.009552 C34.38355347 -0.00482376 34.38355347 -0.00482376 35.7265625 0 C36.50298096 0.00079559 37.27939941 0.00159119 38.0793457 0.00241089 C39.86328125 0.12939453 39.86328125 0.12939453 40.86328125 1.12939453 C40.97324079 3.19397932 41.01240965 5.2623579 41.02441406 7.32983398 C41.03186142 8.30064911 41.03186142 8.30064911 41.03945923 9.29107666 C41.05411614 11.44162036 41.06088948 13.59209025 41.06640625 15.74267578 C41.07215586 17.23382063 41.07791362 18.72496544 41.0836792 20.21611023 C41.09419995 23.3476089 41.10003522 26.47908183 41.10351562 29.6105957 C41.10899539 33.62239126 41.13300745 37.63384654 41.16148758 41.64553547 C41.18011916 44.72791025 41.18531988 47.81020328 41.1868515 50.89262962 C41.18987862 52.37140954 41.19790919 53.85018799 41.21103668 55.32891273 C41.22810495 57.3997944 41.22621538 59.46984789 41.21972656 61.54077148 C41.22519501 63.30829521 41.22519501 63.30829521 41.23077393 65.11152649 C40.82540085 68.44047025 40.29763029 69.84312911 37.86328125 72.12939453 C34.76441381 72.53392649 32.02591705 72.69017383 28.92578125 72.66064453 C28.04929932 72.66447144 27.17281738 72.66829834 26.26977539 72.67224121 C24.41714326 72.67496252 22.56447286 72.66758599 20.71191406 72.65087891 C17.87347896 72.62947144 15.03757497 72.65067215 12.19921875 72.67626953 C10.39973399 72.67362629 8.6002508 72.66850139 6.80078125 72.66064453 C5.52569702 72.67278992 5.52569702 72.67278992 4.22485352 72.68518066 C-1.64456302 72.59161199 -1.64456302 72.59161199 -3.86224365 70.50883484 C-5.54298086 67.37090467 -5.50416486 65.0964749 -5.49316406 61.54077148 C-5.49520844 60.88830444 -5.49725281 60.2358374 -5.49935913 59.56359863 C-5.50235878 57.4146693 -5.48392023 55.26651342 -5.46484375 53.11767578 C-5.46178539 51.62363373 -5.45990985 50.12958882 -5.45916748 48.63554382 C-5.45457007 45.50927773 -5.44016247 42.38327004 -5.41796875 39.25708008 C-5.38961328 35.24182363 -5.37874936 31.22676999 -5.37428665 27.21142292 C-5.37013951 24.12916522 -5.36032918 21.04694882 -5.34841156 17.96471214 C-5.34270015 16.48347493 -5.33794434 15.00223372 -5.33414459 13.52099037 C-5.32730313 11.45719969 -5.313683 9.39357277 -5.29785156 7.32983398 C-5.29102356 6.15387161 -5.28419556 4.97790924 -5.27716064 3.76631165 C-5.05354858 -0.43219688 -3.80088054 0.00389475 0 0 Z " fill="white" transform="translate(111.13671875,128.87060546875)"/>
<path d="M0 0 C5.62492181 1.12498436 5.62492181 1.12498436 8.77734375 3.765625 C9.79538086 4.60673828 9.79538086 4.60673828 10.83398438 5.46484375 C11.52814453 6.05394531 12.22230469 6.64304687 12.9375 7.25 C13.62779297 7.82363281 14.31808594 8.39726562 15.02929688 8.98828125 C16.39169603 10.12210728 17.74906945 11.26200243 19.10107422 12.40820312 C20.28459062 13.40029967 21.48213544 14.37617922 22.69970703 15.32617188 C26.7095596 18.47560053 30.47087631 21.82744614 31.34681702 27.07946777 C31.46143005 29.50833155 31.45008674 31.90511247 31.390625 34.3359375 C31.38496521 35.21528961 31.37930542 36.09464172 31.37347412 37.00064087 C31.35119084 39.79266182 31.30101063 42.58337092 31.25 45.375 C31.22992454 47.27472097 31.21167561 49.17446218 31.1953125 51.07421875 C31.15476375 55.7170504 31.07646184 60.35706744 31 65 C20.77 65 10.54 65 0 65 C0 43.55 0 22.1 0 0 Z " fill="white" transform="translate(113,18)"/>
<path d="M0 0 C12.21 0 24.42 0 37 0 C37 11.55 37 23.1 37 35 C24.79 35 12.58 35 0 35 C0 23.45 0 11.9 0 0 Z " fill="white" transform="translate(110,89)"/>
<path d="M0 0 C1.24458984 0.00515625 2.48917969 0.0103125 3.77148438 0.015625 C5.72344727 0.0465625 5.72344727 0.0465625 7.71484375 0.078125 C9.02001953 0.08328125 10.32519531 0.0884375 11.66992188 0.09375 C21.34407741 0.17399183 21.34407741 0.17399183 23.65234375 1.328125 C23.67699663 6.00951754 23.69518114 10.69087259 23.70727539 15.37231445 C23.71231532 16.96607114 23.71914725 18.55982319 23.7277832 20.15356445 C23.73986374 22.43962753 23.7455753 24.72562967 23.75 27.01171875 C23.75516129 27.72839218 23.76032257 28.44506561 23.76564026 29.18345642 C23.76583638 30.89876172 23.71426382 32.61393766 23.65234375 34.328125 C21.74384427 36.23662448 18.33755601 35.45872133 15.80859375 35.4609375 C15.12430298 35.46189423 14.44001221 35.46285095 13.73498535 35.46383667 C12.28572498 35.4645183 10.83646157 35.46266523 9.38720703 35.45849609 C7.16171447 35.45314752 4.93642374 35.4584416 2.7109375 35.46484375 C1.30598914 35.46418297 -0.0989591 35.4629018 -1.50390625 35.4609375 C-2.79103516 35.45980957 -4.07816406 35.45868164 -5.40429688 35.45751953 C-8.34765625 35.328125 -8.34765625 35.328125 -9.34765625 34.328125 C-9.59011917 29.94689353 -9.5761758 25.56005183 -9.58789062 21.17285156 C-9.59758634 18.96901571 -9.62859147 16.76611631 -9.66015625 14.5625 C-9.66668714 13.16406805 -9.67193728 11.76562942 -9.67578125 10.3671875 C-9.68512695 9.09053223 -9.69447266 7.81387695 -9.70410156 6.49853516 C-9.34765625 3.328125 -9.34765625 3.328125 -8.22387695 1.40869141 C-5.44914822 -0.18935015 -3.18538732 -0.02600865 0 0 Z " fill="white" transform="translate(61.34765625,28.671875)"/>
<path d="M0 0 C1.24458984 0.00515625 2.48917969 0.0103125 3.77148438 0.015625 C5.72344727 0.0465625 5.72344727 0.0465625 7.71484375 0.078125 C9.02001953 0.08328125 10.32519531 0.0884375 11.66992188 0.09375 C21.34407741 0.17399183 21.34407741 0.17399183 23.65234375 1.328125 C23.67699663 6.00951754 23.69518114 10.69087259 23.70727539 15.37231445 C23.71231532 16.96607114 23.71914725 18.55982319 23.7277832 20.15356445 C23.73986374 22.43962753 23.7455753 24.72562967 23.75 27.01171875 C23.75516129 27.72839218 23.76032257 28.44506561 23.76564026 29.18345642 C23.76583638 30.89876172 23.71426382 32.61393766 23.65234375 34.328125 C21.74384427 36.23662448 18.33755601 35.45872133 15.80859375 35.4609375 C15.12430298 35.46189423 14.44001221 35.46285095 13.73498535 35.46383667 C12.28572498 35.4645183 10.83646157 35.46266523 9.38720703 35.45849609 C7.16171447 35.45314752 4.93642374 35.4584416 2.7109375 35.46484375 C1.30598914 35.46418297 -0.0989591 35.4629018 -1.50390625 35.4609375 C-2.79103516 35.45980957 -4.07816406 35.45868164 -5.40429688 35.45751953 C-8.34765625 35.328125 -8.34765625 35.328125 -9.34765625 34.328125 C-9.59011917 29.94689353 -9.5761758 25.56005183 -9.58789062 21.17285156 C-9.59758634 18.96901571 -9.62859147 16.76611631 -9.66015625 14.5625 C-9.66668714 13.16406805 -9.67193728 11.76562942 -9.67578125 10.3671875 C-9.68512695 9.09053223 -9.69447266 7.81387695 -9.70410156 6.49853516 C-9.34765625 3.328125 -9.34765625 3.328125 -8.22387695 1.40869141 C-5.44914822 -0.18935015 -3.18538732 -0.02600865 0 0 Z M-6.34765625 3.328125 C-7.13904684 7.28507797 -7.46563107 10.3230351 -7.4453125 14.28515625 C-7.44208984 15.39697266 -7.43886719 16.50878906 -7.43554688 17.65429688 C-7.42716797 18.80478516 -7.41878906 19.95527344 -7.41015625 21.140625 C-7.40564453 22.31044922 -7.40113281 23.48027344 -7.39648438 24.68554688 C-7.38472555 27.56645858 -7.36829051 30.44726544 -7.34765625 33.328125 C-3.63933962 33.35731374 0.06894717 33.37498718 3.77734375 33.390625 C4.8240625 33.39900391 5.87078125 33.40738281 6.94921875 33.41601562 C7.96757813 33.41923828 8.9859375 33.42246094 10.03515625 33.42578125 C10.96730957 33.43101807 11.89946289 33.43625488 12.85986328 33.44165039 C16.20584059 33.36352098 16.20584059 33.36352098 21.65234375 32.328125 C21.65234375 22.758125 21.65234375 13.188125 21.65234375 3.328125 C12.41234375 3.328125 3.17234375 3.328125 -6.34765625 3.328125 Z " fill="white" transform="translate(61.34765625,28.671875)"/>
<path d="M0 0 C0.33 0 0.66 0 1 0 C1.20638953 26.9576474 1.20638953 26.9576474 0 39 C-0.33 39 -0.66 39 -1 39 C-2.10102642 30.64399592 -2.10094304 22.41192037 -2 14 C-1.67 14 -1.34 14 -1 14 C-0.67 9.38 -0.34 4.76 0 0 Z " fill="white" transform="translate(97,95)"/>
</svg>
