<?xml version="1.0" encoding="UTF-8"?>
<svg version="1.1" xmlns="http://www.w3.org/2000/svg" width="206" height="230">
<path d="M0 0 C67.98 0 135.96 0 206 0 C206 75.9 206 151.8 206 230 C138.02 230 70.04 230 0 230 C0 154.1 0 78.2 0 0 Z " fill="transparent" transform="translate(0,0)"/>
<path d="M0 0 C0.83917969 0.35964844 1.67835937 0.71929687 2.54296875 1.08984375 C3.66638672 1.57130859 3.66638672 1.57130859 4.8125 2.0625 C14.28275441 5.21925147 28.84876405 4.35721305 37.8125 0.0625 C38.8025 -0.5975 39.7925 -1.2575 40.8125 -1.9375 C49.58067433 -2.91033779 59.53300759 2.31071302 66.3125 7.66015625 C78.38493447 18.00979781 85.64274645 31.18365607 86.9916687 47.18829346 C87.22566533 51.82330781 87.24065274 56.45457821 87.20361328 61.09448242 C87.18735781 63.52122783 87.20363862 65.94634797 87.22265625 68.37304688 C87.22067635 69.93489946 87.21683793 71.49675105 87.2109375 73.05859375 C87.21701019 73.77430038 87.22308289 74.49000702 87.2293396 75.22740173 C87.1643477 79.88941143 86.38029005 83.155578 83.8125 87.0625 C79.8125 89.0625 79.8125 89.0625 62.8125 89.0625 C62.8125 74.8725 62.8125 60.6825 62.8125 46.0625 C60.8325 46.7225 58.8525 47.3825 56.8125 48.0625 C56.4825 61.5925 56.1525 75.1225 55.8125 89.0625 C52.84842441 90.54453779 50.19170835 90.18170826 46.88427734 90.17602539 C45.81582329 90.17624443 45.81582329 90.17624443 44.7257843 90.1764679 C42.36663794 90.17577011 40.00757011 90.16798397 37.6484375 90.16015625 C36.01461836 90.1582916 34.38079866 90.15686792 32.74697876 90.15586853 C28.4430182 90.15204709 24.13909129 90.14221998 19.83514404 90.13116455 C15.44478816 90.12094242 11.05442685 90.11636919 6.6640625 90.11132812 C-1.95314046 90.10059739 -10.57031604 90.08352543 -19.1875 90.0625 C-19.21255615 88.79543213 -19.2376123 87.52836426 -19.26342773 86.22290039 C-19.35731996 81.53952221 -19.45758435 76.8562987 -19.55981445 72.1730957 C-19.60323241 70.14285896 -19.64490226 68.11258408 -19.68481445 66.08227539 C-19.74235146 63.17061849 -19.80609278 60.25915486 -19.87109375 57.34765625 C-19.88780624 56.4341188 -19.90451874 55.52058136 -19.92173767 54.57936096 C-19.6105685 50.49460684 -19.6105685 50.49460684 -21.1875 47.0625 C-22.8375 47.0625 -24.4875 47.0625 -26.1875 47.0625 C-26.5175 60.9225 -26.8475 74.7825 -27.1875 89.0625 C-44.1875 89.0625 -44.1875 89.0625 -49.1875 85.0625 C-50.45937151 81.24688547 -50.36949377 77.63765911 -50.390625 73.66015625 C-50.39632507 72.82721542 -50.40202515 71.9942746 -50.40789795 71.13609314 C-50.41734798 69.36832954 -50.42388194 67.60054833 -50.42773438 65.83276367 C-50.4373515 63.16617574 -50.46833661 60.5003885 -50.5 57.83398438 C-50.60852419 40.4937894 -47.59483435 25.03793573 -35.1875 12.0625 C-25.60959933 3.58119955 -13.0426659 -5.68215367 0 0 Z " fill="white" transform="translate(88.1875,122.9375)"/>
<path d="M0 0 C9.61633879 7.41990056 16.71993816 15.13498457 21.03515625 26.5703125 C21.38320312 27.45074219 21.73125 28.33117188 22.08984375 29.23828125 C25.52321561 41.34020767 23.30944414 54.55196484 17.4921875 65.46484375 C10.25641201 77.56862381 1.11523265 84.57502855 -11.96484375 89.5703125 C-21.96223965 91.87251181 -32.45587973 91.4072629 -41.96484375 87.5703125 C-42.97417969 87.18746094 -42.97417969 87.18746094 -44.00390625 86.796875 C-55.39124738 81.85177467 -64.52688232 71.18368451 -69.15234375 59.83203125 C-73.40712275 47.98819931 -73.76227883 34.31328793 -68.96484375 22.5703125 C-62.16512155 9.12718355 -51.98051592 -0.55380285 -37.58984375 -5.6171875 C-25.19739962 -8.42392149 -10.62301323 -7.28559839 0 0 Z " fill="white" transform="translate(130.96484375,28.4296875)"/>
<path d="M0 0 C4.09789669 0.37943488 6.53958935 0.69305957 10 3 C16.11412507 3.72877342 20.8808683 3.61350473 26 0 C28.8125 -0.1875 28.8125 -0.1875 31 0 C31.23046875 2.29296875 31.23046875 2.29296875 31 5 C27.80905571 8.80109901 23.63952641 10.69548771 18.82421875 11.58984375 C11.86919583 11.92492711 7.25088079 10.77983357 1.609375 6.703125 C-0.19476843 4.79388584 -0.71660094 3.59419141 -1 1 C-0.67 0.67 -0.34 0.34 0 0 Z " fill="black" transform="translate(91,89)"/>
<path d="M0 0 C2 2 2 2 2.3125 4.875 C1.96494766 8.35052338 1.63661642 9.71493243 -1 12 C-4 12.5 -4 12.5 -7 12 C-9.58525068 9.75944941 -9.95386189 8.3229668 -10.4375 4.9375 C-10 2 -10 2 -8.375 0.0625 C-5.18435542 -1.36489363 -3.32060787 -0.93843266 0 0 Z " fill="black" transform="translate(128,63)"/>
<path d="M0 0 C2.375 2.125 2.375 2.125 4 5 C4 8.1875 4 8.1875 3 11 C0.47457993 13.15128377 -0.86951313 13.01023426 -4.1875 12.75 C-5.5796875 12.37875 -5.5796875 12.37875 -7 12 C-8.52491998 8.95016004 -8.23562548 6.3576631 -8 3 C-5.96763864 -0.31595801 -3.73306683 -0.72840328 0 0 Z " fill="black" transform="translate(91,62)"/>
</svg>
