<svg width="24" height="19" viewBox="0 0 24 19" fill="none" xmlns="http://www.w3.org/2000/svg">
<path d="M8.16797 0.25C8.44922 0.25 8.69531 0.460938 8.76562 0.742188C9.1875 2.07812 10.4883 3.0625 12 3.0625C13.4766 3.0625 14.7773 2.07812 15.1992 0.742188C15.2695 0.460938 15.5156 0.25 15.7969 0.25H16.2188C17.0273 0.25 17.8008 0.53125 18.3984 1.05859L22.8281 4.75C23.0742 4.92578 23.2148 5.20703 23.2148 5.52344C23.25 5.83984 23.1445 6.12109 22.9688 6.36719L21 8.61719C20.5781 9.07422 19.875 9.10938 19.418 8.72266L17.625 7.21094V16C17.625 17.2656 16.6055 18.25 15.375 18.25H8.625C7.35938 18.25 6.375 17.2656 6.375 16V7.21094L4.54688 8.72266C4.08984 9.10938 3.38672 9.07422 2.96484 8.61719L0.996094 6.36719C0.820312 6.12109 0.714844 5.83984 0.75 5.52344C0.75 5.20703 0.890625 4.92578 1.13672 4.75L5.56641 1.05859C6.19922 0.53125 6.9375 0.25 7.74609 0.25H8.16797Z" fill="white"/>
</svg>
