<?xml version="1.0" encoding="UTF-8"?>
<svg version="1.1" xmlns="http://www.w3.org/2000/svg" width="246" height="194">
<path d="M0 0 C81.18 0 162.36 0 246 0 C246 64.02 246 128.04 246 194 C164.82 194 83.64 194 0 194 C0 129.98 0 65.96 0 0 Z " fill="transparent" transform="translate(0,0)"/>
<path d="M0 0 C0.64282559 -0.00594224 1.28565117 -0.01188449 1.94795632 -0.0180068 C4.10583934 -0.03537479 6.26350036 -0.03839665 8.42144775 -0.04138184 C9.96716791 -0.05063876 11.51288349 -0.06068815 13.05859375 -0.07147217 C17.26122967 -0.09772138 21.46380168 -0.11061053 25.66650677 -0.11949348 C28.29263608 -0.12535552 30.91874794 -0.1335653 33.54486847 -0.14250183 C41.76268043 -0.16985371 49.98045247 -0.18918533 58.1983068 -0.19690561 C67.6821226 -0.20586424 77.16536146 -0.24094604 86.64900184 -0.2989068 C93.98075786 -0.34215896 101.3123517 -0.36231517 108.64423394 -0.36498785 C113.02260781 -0.36708292 117.40043944 -0.37887382 121.77867889 -0.41462708 C125.89932301 -0.44762152 130.01901836 -0.45188555 134.13974762 -0.43434906 C135.64941451 -0.43280989 137.15913272 -0.44147384 138.66867065 -0.46126556 C151.48052826 -0.6193476 151.48052826 -0.6193476 156.01623535 3.07543945 C159.47859922 6.64522847 160.93485252 9.96974674 160.95547485 14.93551636 C160.96826981 16.33171455 160.96826981 16.33171455 160.98132324 17.75611877 C160.97996368 19.27730568 160.97996368 19.27730568 160.97857666 20.82922363 C160.98529388 21.90281631 160.99201111 22.976409 160.99893188 24.08253479 C161.01794782 27.63567722 161.02183789 31.18863112 161.02398682 34.74182129 C161.03041212 37.21037881 161.03714027 39.67893555 161.04415894 42.14749146 C161.05614062 47.32413499 161.05983882 52.50071174 161.05865479 57.67736816 C161.05845152 64.31093383 161.08575783 70.94407144 161.1201992 77.57753563 C161.14243521 82.67676765 161.14649333 87.77589611 161.14543533 92.87517166 C161.1477961 95.32080181 161.15664625 97.7664346 161.17210007 100.21201706 C161.19169291 103.63290142 161.18594759 107.05285558 161.17388916 110.47375488 C161.18512817 111.48383102 161.19636719 112.49390717 161.20794678 113.53459167 C161.15624803 119.30558087 160.60416622 122.73255301 156.68804932 127.28088379 C151.70384669 131.89127121 148.17617837 132.40221503 141.52832031 132.42805481 C140.26384567 132.43521011 138.99937103 132.44236542 137.69657898 132.44973755 C136.29757715 132.45257761 134.89857506 132.45528937 133.49957275 132.45788574 C132.02429546 132.46415317 130.54901974 132.47080022 129.07374573 132.47779846 C124.23164971 132.49880735 119.38955348 132.5091976 114.54742432 132.51916504 C112.87847121 132.52321372 111.20951826 132.52733068 109.54056549 132.53151512 C101.69918203 132.5505595 93.85780795 132.56479234 86.01640582 132.57312709 C76.97365444 132.5828983 67.93114792 132.60921784 58.88848281 132.64962798 C51.89300384 132.67981381 44.89759498 132.69459828 37.90205216 132.6979081 C33.72666185 132.70025569 29.55153335 132.70917802 25.37621307 132.73436928 C21.44613314 132.75769853 17.51648652 132.76186397 13.58635521 132.75160789 C12.14807122 132.75111361 10.70976555 132.75740251 9.27154732 132.77116394 C-5.86002676 132.90778872 -5.86002676 132.90778872 -11.31195068 128.28088379 C-15.85900477 122.61672159 -15.89634188 117.50400137 -15.86126709 110.42370605 C-15.87148895 109.35288788 -15.88171082 108.2820697 -15.89224243 107.17880249 C-15.91996342 103.65140206 -15.91812677 100.12478621 -15.91351318 96.59729004 C-15.92129057 94.13780936 -15.92996063 91.67833135 -15.93948364 89.21885681 C-15.95439243 84.06846399 -15.95383672 78.91834541 -15.94329834 73.76794434 C-15.9317062 67.17587926 -15.96558333 60.58493755 -16.01198769 53.9930582 C-16.04148535 48.91515061 -16.04320283 43.83751293 -16.03696823 38.75953484 C-16.03799336 36.32950553 -16.04844472 33.89946085 -16.06859207 31.46951485 C-16.09333557 28.06809073 -16.07973394 24.66884664 -16.05657959 21.26745605 C-16.07186707 20.2692836 -16.08715454 19.27111115 -16.10290527 18.24269104 C-15.99942929 11.34716425 -14.25143419 7.15711171 -9.31195068 2.28088379 C-5.75452636 -0.09073243 -4.22214419 0.02178024 0 0 Z " fill="white" transform="translate(57.31195068359375,41.7191162109375)"/>
<path d="M0 0 C4.15078465 0.82500068 7.33979309 2.88261982 10.87890625 5.12890625 C14.61686216 7.49198183 18.42985467 9.71074122 22.25 11.9375 C29.53755032 16.21281986 36.82497188 20.49994493 43.9375 25.0625 C44.71480469 25.50722656 45.49210937 25.95195313 46.29296875 26.41015625 C47.9375 28.0625 47.9375 28.0625 48.6796875 30.9375 C47.83828703 34.48023881 47.48181862 34.74622658 44.5703125 36.625 C43.0801651 37.4601265 41.57653165 38.27149829 40.0625 39.0625 C38.48941991 39.93199607 36.91650234 40.80178624 35.34375 41.671875 C34.580625 42.08373047 33.8175 42.49558594 33.03125 42.91992188 C30.49156674 44.30584977 28.02462681 45.79365554 25.5625 47.3125 C21.31394908 49.87317161 16.98498447 52.26193902 12.61328125 54.60546875 C10.8649683 55.55746981 9.13197771 56.53832015 7.41796875 57.55078125 C6.25201172 58.23720703 6.25201172 58.23720703 5.0625 58.9375 C4.38445312 59.34742188 3.70640625 59.75734375 3.0078125 60.1796875 C0.52892177 61.23672393 -1.39448494 61.22053574 -4.0625 61.0625 C-5.70105565 57.45569841 -6.31739269 54.62995989 -6.3371582 50.67724609 C-6.34669022 49.62620697 -6.35622223 48.57516785 -6.36604309 47.49227905 C-6.36513168 46.36818634 -6.36422028 45.24409363 -6.36328125 44.0859375 C-6.36756638 42.92373688 -6.3718515 41.76153625 -6.37626648 40.56411743 C-6.38200209 38.11143647 -6.38251572 35.65873851 -6.37817383 33.20605469 C-6.37500579 29.44436909 -6.39851163 25.68346386 -6.42382812 21.921875 C-6.42610029 19.53906349 -6.426805 17.15624987 -6.42578125 14.7734375 C-6.434991 13.64529633 -6.44420074 12.51715515 -6.45368958 11.35482788 C-6.44746078 10.31009308 -6.44123199 9.26535828 -6.43481445 8.18896484 C-6.43544388 7.2691684 -6.4360733 6.34937195 -6.4367218 5.40170288 C-6.0625 3.0625 -6.0625 3.0625 -4.7306366 1.2460022 C-3.0625 0.0625 -3.0625 0.0625 0 0 Z " fill="#6348FA" transform="translate(111.0625,76.9375)"/>
</svg>
