<svg width="32" height="32" viewBox="0 0 32 32" fill="none" xmlns="http://www.w3.org/2000/svg">
<path d="M21.625 14.5625C21.625 16.1797 21.0977 17.6914 20.2188 18.8867L24.6484 23.3516C25.1055 23.7734 25.1055 24.5117 24.6484 24.9336C24.2266 25.3906 23.4883 25.3906 23.0664 24.9336L18.6016 20.4688C17.4062 21.3828 15.8945 21.875 14.3125 21.875C10.2695 21.875 7 18.6055 7 14.5625C7 10.5547 10.2695 7.25 14.3125 7.25C18.3203 7.25 21.625 10.5547 21.625 14.5625ZM14.3125 19.625C16.1055 19.625 17.7578 18.6758 18.6719 17.0938C19.5859 15.5469 19.5859 13.6133 18.6719 12.0312C17.7578 10.4844 16.1055 9.5 14.3125 9.5C12.4844 9.5 10.832 10.4844 9.91797 12.0312C9.00391 13.6133 9.00391 15.5469 9.91797 17.0938C10.832 18.6758 12.4844 19.625 14.3125 19.625Z" fill="#6E7987"/>
</svg>
