<?xml version="1.0" encoding="UTF-8"?>
<svg version="1.1" xmlns="http://www.w3.org/2000/svg" width="48" height="48" viewBox='0 0 1024 1024'>
<path d="M0 0 C0.85464844 0.73347656 1.70929688 1.46695313 2.58984375 2.22265625 C17.88382523 15.53542686 30.67438341 31.57700557 41 49 C41.33563965 49.55526367 41.6712793 50.11052734 42.01708984 50.68261719 C68.90464979 95.38665359 76.45597925 149.4130504 64.70410156 200.17333984 C60.66679132 216.3813766 55.43227889 232.03652709 48 247 C47.46366943 248.09707275 47.46366943 248.09707275 46.91650391 249.21630859 C36.76389945 269.81920876 24.37826436 289.10819196 10 307 C9.27425781 307.92554688 8.54851562 308.85109375 7.80078125 309.8046875 C0.23459308 319.41205828 -7.73904289 328.69619915 -15.9609375 337.74609375 C-17.79086247 339.7688269 -19.58881728 341.81369435 -21.375 343.875 C-24.82127821 347.83421264 -28.37163551 351.6957526 -31.93286133 355.55126953 C-35.27485431 359.1779959 -38.50771393 362.879695 -41.66015625 366.671875 C-43 368 -43 368 -45 368 C-45.39436249 368.88282906 -45.39436249 368.88282906 -45.79669189 369.78349304 C-47.05758345 372.10606936 -48.37710329 373.61234274 -50.25292969 375.46411133 C-50.91411804 376.12192093 -51.5753064 376.77973053 -52.25653076 377.45747375 C-52.97109436 378.15857773 -53.68565796 378.8596817 -54.421875 379.58203125 C-55.52828339 380.68063728 -55.52828339 380.68063728 -56.65704346 381.80143738 C-59.01666481 384.14325644 -61.38284296 386.47830033 -63.75 388.8125 C-66.10203928 391.13680297 -68.45256553 393.46258456 -70.80010986 395.79142761 C-72.25982525 397.23901869 -73.72220496 398.68392982 -75.18768311 400.12568665 C-78.40433983 403.31116527 -81.48040491 406.51329171 -84.37207031 409.9987793 C-85.23928711 410.98918213 -86.10650391 411.97958496 -87 413 C-87.66 413 -88.32 413 -89 413 C-89 413.66 -89 414.32 -89 415 C-90.57421875 416.55078125 -90.57421875 416.55078125 -92.6875 418.3125 C-95.94538314 421.08284781 -99.01430155 423.933607 -102 427 C-102.7425 427.721875 -103.485 428.44375 -104.25 429.1875 C-106.74187993 431.73601357 -109.12366195 434.3443242 -111.5 437 C-114.57695479 440.43805197 -117.69189902 443.78130715 -121 447 C-122.10548823 448.10284352 -123.2096165 449.20705166 -124.3125 450.3125 C-125.199375 451.199375 -126.08625 452.08625 -127 453 C-125.86820313 453.06058594 -124.73640625 453.12117188 -123.5703125 453.18359375 C-122.08852855 453.26799917 -120.6067584 453.35264717 -119.125 453.4375 C-118.00544922 453.49647461 -118.00544922 453.49647461 -116.86328125 453.55664062 C-111.2265625 453.88671875 -111.2265625 453.88671875 -109 455 C-108.67 454.34 -108.34 453.68 -108 453 C-108 453.66 -108 454.32 -108 455 C-107.46084961 454.98259766 -106.92169922 454.96519531 -106.36621094 454.94726562 C-98.26819728 454.80781644 -90.29084893 455.65647513 -82.25 456.5 C-80.16791826 456.71618828 -78.08571446 456.93084439 -76.00311279 457.14196777 C-74.12444006 457.33270241 -72.2462834 457.52850053 -70.36816406 457.72460938 C-67.0270755 458.04758594 -67.0270755 458.04758594 -63.77246094 457.97851562 C-60.52120114 458.00371031 -58.0217341 458.8488632 -55 460 C-54.67 459.34 -54.34 458.68 -54 458 C-54 458.99 -54 459.98 -54 461 C-53.15695312 461.03867188 -53.15695312 461.03867188 -52.296875 461.078125 C-41.60041426 461.79997204 -30.19850372 463.60049876 -20 467 C-19.12956055 467.2880249 -18.25912109 467.5760498 -17.36230469 467.87280273 C-1.35486807 473.19514067 14.26925733 478.89729202 29.62939453 485.91748047 C31.75575313 486.88846646 33.88902135 487.84089833 36.02734375 488.78515625 C42.01229886 491.46570316 47.54025373 494.38157993 53 498 C53.78117187 498.47695313 54.56234375 498.95390625 55.3671875 499.4453125 C79.97082932 514.55793522 106.75950168 535.62667516 114.5625 564.875 C116.21882753 575.3517705 112.90829656 583.17575828 106.875 591.5 C99.04127946 601.17597262 87.8196223 608.15566415 76.734375 613.60546875 C73.9417943 614.8524332 73.9417943 614.8524332 72 617 C68.50631033 618.57310801 64.88785043 619.83153246 61.29150391 621.15039062 C58.74229441 622.0955482 56.20593306 623.07193893 53.66796875 624.046875 C20.76289775 636.5037167 -13.62184486 642.98524231 -48.40795898 647.57470703 C-50.97619536 647.86455824 -50.97619536 647.86455824 -53 649 C-54.36339866 649.05542561 -55.72935442 649.05559943 -57.09350586 649.02368164 C-61.60022402 648.9747365 -66.01617037 649.2355052 -70.50390625 649.62109375 C-72.13269852 649.75325074 -73.76152487 649.88498811 -75.39038086 650.01635742 C-76.23406219 650.08535248 -77.07774353 650.15434753 -77.94699097 650.22543335 C-96.63121038 651.74035827 -115.25808899 652.67861083 -134 653 C-135.23387451 653.02489502 -135.23387451 653.02489502 -136.49267578 653.05029297 C-141.33126005 653.1398759 -146.16228336 653.09777959 -151 653 C-152.03769531 652.98211426 -153.07539063 652.96422852 -154.14453125 652.94580078 C-183.40380631 652.39335857 -212.84496451 650.87454371 -241.84545898 646.82666016 C-242.74852783 646.70339355 -243.65159668 646.58012695 -244.58203125 646.453125 C-245.34749268 646.34129883 -246.1129541 646.22947266 -246.90161133 646.11425781 C-249.14580095 645.9920611 -250.86102552 646.34446385 -253 647 C-253 646.01 -253 645.02 -253 644 C-254.04595337 643.94175049 -254.04595337 643.94175049 -255.11303711 643.88232422 C-263.43801559 643.31562758 -271.41159406 641.87192704 -279.5625 640.125 C-280.79935547 639.86847656 -282.03621094 639.61195313 -283.31054688 639.34765625 C-289.85334667 637.97058892 -296.29913127 636.44678865 -302.71069336 634.54638672 C-305.25618579 633.84523419 -305.25618579 633.84523419 -309 634 C-309 633.34 -309 632.68 -309 632 C-309.5978833 631.89550537 -310.1957666 631.79101074 -310.81176758 631.68334961 C-340.4346957 626.17657841 -373.6781899 611.51101935 -392.52734375 587.3359375 C-397.56232747 579.34941159 -398.2117386 571.17293095 -397 562 C-395.84490705 557.97514278 -394.10479652 554.60593313 -392 551 C-391.49210937 550.03707031 -390.98421875 549.07414063 -390.4609375 548.08203125 C-386.23914783 540.34875302 -381.13911969 533.329915 -375 527 C-374.34 527 -373.68 527 -373 527 C-372.76410156 526.4328125 -372.52820313 525.865625 -372.28515625 525.28125 C-354.73425901 494.12707374 -296.39458222 476.0751638 -265 467 C-260.49455802 465.76595775 -255.97591369 464.60631121 -251.4375 463.5 C-249.95032471 463.13527588 -249.95032471 463.13527588 -248.43310547 462.76318359 C-242.64309998 461.41477226 -237.04182396 460.63460702 -231.10180664 460.32617188 C-230.06141235 460.1647168 -230.06141235 460.1647168 -229 460 C-228.67 459.34 -228.34 458.68 -228 458 C-225.33422852 457.63867187 -225.33422852 457.63867187 -221.81640625 457.46875 C-216.88743783 457.18463805 -211.99707671 456.82595216 -207.08984375 456.28125 C-189.69192733 454.37537307 -172.49930433 453.35373845 -155 453 C-158.93219451 449.06327821 -162.87394872 445.1362053 -166.81614685 441.20950317 C-170.05492951 437.98234457 -173.29184436 434.75331667 -176.52814388 431.52366829 C-178.97666679 429.08036337 -181.42611894 426.63800512 -183.87768555 424.19775391 C-186.72205387 421.36642076 -189.56228295 418.53096646 -192.40234375 415.6953125 C-193.2743895 414.82842804 -194.14643524 413.96154358 -195.04490662 413.06838989 C-199.58203272 408.53167954 -203.88420467 403.92150589 -208 399 C-209.64164999 397.30868665 -211.31129364 395.64433159 -213 394 C-215.94345987 391.11017619 -218.87857285 388.21199715 -221.8125 385.3125 C-222.60076172 384.54099609 -223.38902344 383.76949219 -224.20117188 382.97460938 C-224.94560547 382.23662109 -225.69003906 381.49863281 -226.45703125 380.73828125 C-227.13741455 380.06837158 -227.81779785 379.39846191 -228.51879883 378.70825195 C-230 377 -230 377 -230 375 C-230.66 375 -231.32 375 -232 375 C-233.41015625 373.56640625 -233.41015625 373.56640625 -235.0625 371.5625 C-237.75174994 368.39242783 -240.53513377 365.41418475 -243.5 362.5 C-246.84933729 359.19013302 -249.99925956 355.79253051 -253.0625 352.21875 C-254.98557487 350.0165191 -256.96001578 347.86780766 -258.94897461 345.72509766 C-263.65575811 340.65005528 -268.16859836 335.47902535 -272.5078125 330.08203125 C-274.37869084 327.76835882 -276.26731879 325.47813421 -278.1796875 323.19921875 C-286.90140737 312.78027267 -295.11829667 302.06792383 -303 291 C-303.67192383 290.06220703 -303.67192383 290.06220703 -304.35742188 289.10546875 C-317.60358822 270.46577757 -327.99809427 249.96611462 -337 229 C-337.29600098 228.31969727 -337.59200195 227.63939453 -337.89697266 226.93847656 C-350.23774152 198.47808979 -353.43918141 161.60402171 -350 131 C-349.91089355 130.20126465 -349.82178711 129.4025293 -349.72998047 128.57958984 C-343.97603118 79.94118163 -321.50520324 37.33715842 -287 3 C-286.35675781 2.33355469 -285.71351563 1.66710937 -285.05078125 0.98046875 C-284.47714844 0.38878906 -283.90351563 -0.20289063 -283.3125 -0.8125 C-282.73113281 -1.41707031 -282.14976562 -2.02164063 -281.55078125 -2.64453125 C-280 -4 -280 -4 -278 -4 C-278 -4.66 -278 -5.32 -278 -6 C-276.67749023 -7.26171875 -276.67749023 -7.26171875 -274.80859375 -8.6875 C-274.11894531 -9.21633789 -273.42929687 -9.74517578 -272.71875 -10.29003906 C-271.9659375 -10.85432617 -271.213125 -11.41861328 -270.4375 -12 C-269.27927734 -12.87350098 -269.27927734 -12.87350098 -268.09765625 -13.76464844 C-191.82466261 -70.81309655 -91.51354479 -69.60599636 0 0 Z M-224 81 C-243.83039973 105.00096228 -251.3078035 133.85446132 -248.6875 164.67578125 C-245.84494163 185.46198936 -237.6623673 205.09003439 -224 221 C-223.33355469 221.81210937 -222.66710937 222.62421875 -221.98046875 223.4609375 C-211.65799553 235.60277057 -199.42458764 243.54912729 -185 250 C-183.69482422 250.61294922 -183.69482422 250.61294922 -182.36328125 251.23828125 C-157.16131203 262.32030167 -126.83287191 261.29542844 -101.35546875 251.79296875 C-89.3286599 246.99577368 -78.50894397 240.85650548 -69 232 C-68.2272876 231.29665527 -68.2272876 231.29665527 -67.43896484 230.57910156 C-47.6520122 212.44155078 -34.91192534 187.53363944 -33.09375 160.48828125 C-33.0628125 159.66714844 -33.031875 158.84601563 -33 158 C-32.9484375 156.98292969 -32.896875 155.96585937 -32.84375 154.91796875 C-32.1198813 128.52692224 -41.10898628 101.60494277 -59 82 C-59.70455322 81.21592773 -59.70455322 81.21592773 -60.42333984 80.41601562 C-81.66296437 57.05176261 -108.99413778 44.8869198 -140.3046875 42.77734375 C-172.34863171 41.85837777 -203.05992243 57.34893024 -224 81 Z " fill="#FE6150" transform="translate(653,214)"/>
<path d="M0 0 C0.33 0.66 0.66 1.32 1 2 C1.53915039 1.98259766 2.07830078 1.96519531 2.63378906 1.94726562 C10.73180272 1.80781644 18.70915107 2.65647513 26.75 3.5 C28.83208174 3.71618828 30.91428554 3.93084439 32.99688721 4.14196777 C34.87555994 4.33270241 36.7537166 4.52850053 38.63183594 4.72460938 C41.9729245 5.04758594 41.9729245 5.04758594 45.22753906 4.97851562 C48.47879886 5.00371031 50.9782659 5.8488632 54 7 C54.33 6.34 54.66 5.68 55 5 C55 5.99 55 6.98 55 8 C55.84304688 8.03867187 55.84304688 8.03867187 56.703125 8.078125 C67.39958574 8.79997204 78.80149628 10.60049876 89 14 C89.87043945 14.2880249 90.74087891 14.5760498 91.63769531 14.87280273 C107.64513193 20.19514067 123.26925733 25.89729202 138.62939453 32.91748047 C140.75575313 33.88846646 142.88902135 34.84089833 145.02734375 35.78515625 C151.01229886 38.46570316 156.54025373 41.38157993 162 45 C162.78117187 45.47695313 163.56234375 45.95390625 164.3671875 46.4453125 C188.97082932 61.55793522 215.75950168 82.62667516 223.5625 111.875 C225.21882753 122.3517705 221.90829656 130.17575828 215.875 138.5 C208.04127946 148.17597262 196.8196223 155.15566415 185.734375 160.60546875 C182.9417943 161.8524332 182.9417943 161.8524332 181 164 C177.50631033 165.57310801 173.88785043 166.83153246 170.29150391 168.15039062 C167.74229441 169.0955482 165.20593306 170.07193893 162.66796875 171.046875 C129.76289775 183.5037167 95.37815514 189.98524231 60.59204102 194.57470703 C58.02380464 194.86455824 58.02380464 194.86455824 56 196 C54.63660134 196.05542561 53.27064558 196.05559943 51.90649414 196.02368164 C47.39977598 195.9747365 42.98382963 196.2355052 38.49609375 196.62109375 C36.86730148 196.75325074 35.23847513 196.88498811 33.60961914 197.01635742 C32.76593781 197.08535248 31.92225647 197.15434753 31.05300903 197.22543335 C12.36878962 198.74035827 -6.25808899 199.67861083 -25 200 C-26.23387451 200.02489502 -26.23387451 200.02489502 -27.49267578 200.05029297 C-32.33126005 200.1398759 -37.16228336 200.09777959 -42 200 C-43.03769531 199.98211426 -44.07539063 199.96422852 -45.14453125 199.94580078 C-74.40380631 199.39335857 -103.84496451 197.87454371 -132.84545898 193.82666016 C-134.20006226 193.64176025 -134.20006226 193.64176025 -135.58203125 193.453125 C-136.34749268 193.34129883 -137.1129541 193.22947266 -137.90161133 193.11425781 C-140.14580095 192.9920611 -141.86102552 193.34446385 -144 194 C-144 193.01 -144 192.02 -144 191 C-144.69730225 190.96116699 -145.39460449 190.92233398 -146.11303711 190.88232422 C-154.43801559 190.31562758 -162.41159406 188.87192704 -170.5625 187.125 C-172.4177832 186.74021484 -172.4177832 186.74021484 -174.31054688 186.34765625 C-180.85334667 184.97058892 -187.29913127 183.44678865 -193.71069336 181.54638672 C-196.25618579 180.84523419 -196.25618579 180.84523419 -200 181 C-200 180.34 -200 179.68 -200 179 C-200.89682495 178.84325806 -200.89682495 178.84325806 -201.81176758 178.68334961 C-231.4346957 173.17657841 -264.6781899 158.51101935 -283.52734375 134.3359375 C-288.56232747 126.34941159 -289.2117386 118.17293095 -288 109 C-286.84490705 104.97514278 -285.10479652 101.60593313 -283 98 C-282.49210937 97.03707031 -281.98421875 96.07414063 -281.4609375 95.08203125 C-277.23914783 87.34875302 -272.13911969 80.329915 -266 74 C-265.34 74 -264.68 74 -264 74 C-263.64615234 73.14921875 -263.64615234 73.14921875 -263.28515625 72.28125 C-245.73425901 41.12707374 -187.39458222 23.0751638 -156 14 C-151.49455802 12.76595775 -146.97591369 11.60631121 -142.4375 10.5 C-141.4460498 10.25685059 -140.45459961 10.01370117 -139.43310547 9.76318359 C-133.64309998 8.41477226 -128.04182396 7.63460702 -122.10180664 7.32617188 C-121.40821045 7.21853516 -120.71461426 7.11089844 -120 7 C-119.67 6.34 -119.34 5.68 -119 5 C-116.32763672 4.64086914 -116.32763672 4.64086914 -112.8046875 4.47265625 C-107.90993288 4.19124188 -103.06422823 3.82336555 -98.1953125 3.24609375 C-79.70648256 1.11016719 -61.60055548 0.64023921 -43 1 C-43 5 -43 5 -44.94140625 7.078125 C-46.23884766 8.15320313 -46.23884766 8.15320313 -47.5625 9.25 C-56.33944194 16.850906 -65.18481303 25.81953162 -67.0625 37.8125 C-67.26054538 41.92010793 -66.38516252 44.58126705 -64 48 C-59.49024094 52.27240332 -55.41905607 53.91859978 -49.328125 54.55078125 C-48.11237793 54.67900269 -48.11237793 54.67900269 -46.87207031 54.80981445 C-46.25428711 54.87257568 -45.63650391 54.93533691 -45 55 C-45.02094727 55.60247559 -45.04189453 56.20495117 -45.06347656 56.82568359 C-45.87576195 83.91385882 -40.65373961 107.17240955 -21.50390625 127.5859375 C-10.02662578 138.65139667 5.38182191 147.7060491 21.6875 148.375 C27.00976862 148.16478472 31.87733129 146.84877597 35.9375 143.3125 C38.15905908 138.47734201 38.57700304 134.6095348 36.8125 129.6875 C33.02609196 124.07317083 28.23912043 122.63618653 21.73828125 121.359375 C20.60777344 121.15828125 19.47726562 120.9571875 18.3125 120.75 C5.12929001 117.96071031 -5.38767226 110.77782774 -12.875 99.5625 C-19.12973573 89.10898334 -20.16950088 79.1804866 -20.125 67.1875 C-20.12886719 66.12595703 -20.13273437 65.06441406 -20.13671875 63.97070312 C-20.13478516 62.45959961 -20.13478516 62.45959961 -20.1328125 60.91796875 C-20.13168457 59.99781982 -20.13055664 59.0776709 -20.12939453 58.12963867 C-20 56 -20 56 -19 55 C-17.27509871 54.70321119 -15.5447811 54.43764046 -13.8125 54.1875 C-7.89838295 53.1442835 -4.09720141 51.44673498 -0.125 46.8125 C1.94093989 41.64765028 1.83017365 37.44327529 0.0390625 32.171875 C-4.98302305 21.08264565 -13.58733697 12.53013042 -23 5 C-22.34 3.68 -21.68 2.36 -21 1 C-17.87501937 0.97104024 -14.7500731 0.95321517 -11.625 0.9375 C-10.29082031 0.92493164 -10.29082031 0.92493164 -8.9296875 0.91210938 C-8.07890625 0.90888672 -7.228125 0.90566406 -6.3515625 0.90234375 C-5.56604004 0.89710693 -4.78051758 0.89187012 -3.97119141 0.88647461 C-2 1 -2 1 0 2 C0 1.34 0 0.68 0 0 Z " fill="#BEEDF5" transform="translate(544,667)"/>
<path d="M0 0 C28.32468265 16.50272824 52.35917118 41.92099229 69 70 C69.33563965 70.55526367 69.6712793 71.11052734 70.01708984 71.68261719 C96.90464979 116.38665359 104.45597925 170.4130504 92.70410156 221.17333984 C88.66679132 237.3813766 83.43227889 253.03652709 76 268 C75.46366943 269.09707275 75.46366943 269.09707275 74.91650391 270.21630859 C64.76389945 290.81920876 52.37826436 310.10819196 38 328 C37.27425781 328.92554688 36.54851562 329.85109375 35.80078125 330.8046875 C28.23459308 340.41205828 20.26095711 349.69619915 12.0390625 358.74609375 C10.20913753 360.7688269 8.41118272 362.81369435 6.625 364.875 C3.17872179 368.83421264 -0.37163551 372.6957526 -3.93286133 376.55126953 C-7.27485431 380.1779959 -10.50771393 383.879695 -13.66015625 387.671875 C-15 389 -15 389 -17 389 C-17.26290833 389.5885527 -17.52581665 390.17710541 -17.79669189 390.78349304 C-19.05758345 393.10606936 -20.37710329 394.61234274 -22.25292969 396.46411133 C-23.24471222 397.45082573 -23.24471222 397.45082573 -24.25653076 398.45747375 C-25.32837616 399.50912971 -25.32837616 399.50912971 -26.421875 400.58203125 C-27.15948059 401.31443527 -27.89708618 402.04683929 -28.65704346 402.80143738 C-31.01666481 405.14325644 -33.38284296 407.47830033 -35.75 409.8125 C-38.10203928 412.13680297 -40.45256553 414.46258456 -42.80010986 416.79142761 C-44.25982525 418.23901869 -45.72220496 419.68392982 -47.18768311 421.12568665 C-50.40433983 424.31116527 -53.48040491 427.51329171 -56.37207031 430.9987793 C-57.67289551 432.48438354 -57.67289551 432.48438354 -59 434 C-59.66 434 -60.32 434 -61 434 C-61 434.66 -61 435.32 -61 436 C-62.57421875 437.55078125 -62.57421875 437.55078125 -64.6875 439.3125 C-67.94538314 442.08284781 -71.01430155 444.933607 -74 448 C-75.11375 449.0828125 -75.11375 449.0828125 -76.25 450.1875 C-78.74187993 452.73601357 -81.12366195 455.3443242 -83.5 458 C-89.61025897 464.81258758 -96.17211644 470.91456591 -103 477 C-101.89187926 480.32436221 -101.14463373 480.92685332 -98.5 483.0625 C-89.65482734 490.63954755 -80.69155339 499.6682638 -78.53125 511.5859375 C-78.34892732 516.15919818 -79.0116158 519.39332941 -82 523 C-87.640017 528.1947525 -92.64644673 529.13796267 -100 530 C-100.46785944 548.8775284 -100.59889998 566.52910305 -86.9453125 581.1875 C-78.11567035 589.41431518 -68.02174246 593.07912398 -56.33203125 595.19140625 C-51.71071803 596.31287382 -48.14992032 597.91223754 -44.6875 601.1875 C-42.52500679 604.79165536 -41.77772006 607.80137898 -42 612 C-43.35555572 615.59222265 -44.83683637 618.74059741 -48 621 C-60.17018127 625.62466888 -71.77432398 621.65014374 -83.125 616.61328125 C-89.71721067 613.19544475 -95.41656448 608.87106616 -101 604 C-101.60328125 603.49210938 -102.2065625 602.98421875 -102.828125 602.4609375 C-116.93227304 589.60902691 -126.0386295 568.61746719 -127.13183594 549.72119141 C-127.59653374 535.5020124 -127.59653374 535.5020124 -126 529 C-126.556875 529.04640625 -127.11375 529.0928125 -127.6875 529.140625 C-134.49730424 529.46271034 -139.31375077 528.0916929 -144.57421875 523.6796875 C-147.64944297 520.45466726 -148.86280796 517.39295587 -149.125 513.05859375 C-148.31081722 499.6500211 -136.31899104 488.48791143 -127 480 C-126.01 479.34 -125.02 478.68 -124 478 C-124 477.34 -124 476.68 -124 476 C-125.41392964 475.10336169 -126.82800214 474.20694807 -128.24269104 473.31150818 C-130.20489066 471.84708678 -131.60982038 470.26873803 -133.17944336 468.39086914 C-137.0971906 463.82634744 -141.29131094 459.59916201 -145.56640625 455.37109375 C-146.36352524 454.57776138 -147.16064423 453.78442902 -147.98191833 452.96705627 C-150.50634673 450.45474309 -153.03399861 447.94571348 -155.5625 445.4375 C-158.90007983 442.12664371 -162.23424724 438.81240471 -165.56640625 435.49609375 C-166.32280899 434.74798935 -167.07921173 433.99988495 -167.85853577 433.22911072 C-171.65496604 429.45015305 -175.29441575 425.62392476 -178.70933533 421.49501038 C-179.98561005 420.01666825 -181.4004689 418.66177416 -182.8125 417.3125 C-184.92994192 415.0740614 -185.665992 414.00607197 -186 411 C-185.01 411.33 -184.02 411.66 -183 412 C-170.15623242 412.88527664 -158.07218923 411.21674013 -145.52587891 408.53808594 C-143.30634325 408.06526005 -141.08329675 407.62671748 -138.85546875 407.1953125 C-104.76178644 399.82180757 -75.35561182 377.95779742 -50 355 C-49.18402344 354.27554687 -48.36804688 353.55109375 -47.52734375 352.8046875 C-34.14655427 340.76749862 -21.05363472 328.23072734 -10 314 C-8.37951014 312.07951862 -6.75425829 310.16304823 -5.125 308.25 C18.99430038 279.28447234 38.96585546 245.10723599 50 209 C50.26506348 208.14937988 50.53012695 207.29875977 50.80322266 206.42236328 C67.0481902 153.53564255 63.70705596 98.19191499 38.02587891 48.90527344 C35.60634481 44.41168846 32.93124597 40.17443553 30 36 C29.6169873 35.45005371 29.23397461 34.90010742 28.83935547 34.33349609 C19.72277005 20.45704469 19.72277005 20.45704469 8 9 C6.55071236 7.80583041 5.11400775 6.59629085 3.6875 5.375 C2.99011719 4.78460938 2.29273438 4.19421875 1.57421875 3.5859375 C0 2 0 2 0 0 Z " fill="#EF4A3D" transform="translate(625,193)"/>
<path d="M0 0 C0.66 0.33 1.32 0.66 2 1 C-10.90246261 19.59936146 -24.77379215 36.99718162 -39.98046875 53.765625 C-43.03007881 57.13966167 -46.01394087 60.56979019 -49 64 C-50.31213495 65.50031934 -51.62462751 67.00032601 -52.9375 68.5 C-53.52402344 69.1703125 -54.11054687 69.840625 -54.71484375 70.53125 C-55.13894531 71.0159375 -55.56304688 71.500625 -56 72 C-56.33 71.01 -56.66 70.02 -57 69 C-56.38125 68.773125 -55.7625 68.54625 -55.125 68.3125 C-52.77279369 67.15068028 -52.77279369 67.15068028 -52 64.5 C-51 62 -51 62 -48.875 60.6875 C-48.25625 60.460625 -47.6375 60.23375 -47 60 C-47 59.34 -47 58.68 -47 58 C-46.34 58 -45.68 58 -45 58 C-44.72542969 57.40703125 -44.45085938 56.8140625 -44.16796875 56.203125 C-43.04856139 54.09160075 -41.89116747 52.53194793 -40.3125 50.75 C-39.78350098 50.14752441 -39.25450195 49.54504883 -38.70947266 48.92431641 C-37.86328369 47.97177979 -37.86328369 47.97177979 -37 47 C-35.81944991 45.65440213 -34.63977217 44.30803844 -33.4609375 42.9609375 C-32.87538086 42.29288086 -32.28982422 41.62482422 -31.68652344 40.93652344 C-22.13389264 29.96786862 -13.33160031 18.58675394 -4.99853516 6.67504883 C-4.49628418 5.95728271 -3.9940332 5.2395166 -3.4765625 4.5 C-3.02361816 3.8503125 -2.57067383 3.200625 -2.10400391 2.53125 C-1 1 -1 1 0 0 Z " fill="#F25344" transform="translate(677,498)"/>
<path d="M0 0 C13.98385115 8.14737091 28.02308688 19.0667649 39 31 C39 31.99 39 32.98 39 34 C38.01 33.34 37.02 32.68 36 32 C36 31.34 36 30.68 36 30 C35.42378906 29.7525 34.84757813 29.505 34.25390625 29.25 C31.6629194 27.81305755 29.97955193 26.14041667 27.9375 24 C25.66346144 21.62557202 23.75478071 19.83652048 21 18 C19.68 18 18.36 18 17 18 C15.21875 16.3203125 15.21875 16.3203125 13.5 14.125 C11.16247895 11.16059831 9.41853554 9.56882693 6 8 C1.22222222 3.66666667 1.22222222 3.66666667 0 0 Z " fill="#F55545" transform="translate(625,193)"/>
<path d="M0 0 C0.66 0.66 1.32 1.32 2 2 C-5.46334052 19.91695985 -14.44387604 36.7166173 -25 53 C-25.495 51.515 -25.495 51.515 -26 50 C-24.73056786 47.53580819 -23.41912234 45.26852052 -21.9375 42.9375 C-21.51919922 42.25776123 -21.10089844 41.57802246 -20.66992188 40.87768555 C-18.93566675 38.06286122 -17.17374723 35.26878487 -15.37890625 32.4921875 C-9.01430128 22.43142383 -4.29708829 11.08557352 0 0 Z " fill="#F25344" transform="translate(706,443)"/>
<path d="M0 0 C4.26866846 1.42288949 5.78484805 4.59345724 8.1875 8.1875 C8.66928711 8.89986816 9.15107422 9.61223633 9.64746094 10.34619141 C14.08245043 16.9810415 18.60338768 23.76647377 22 31 C21.67 31.66 21.34 32.32 21 33 C18.51239057 30.14385584 16.53260791 27.26100627 14.75 23.9375 C12.03683808 18.88540539 8.8315166 14.21825786 5.57421875 9.50390625 C4 7 4 7 4 5 C3.34 5 2.68 5 2 5 C1.34 3.35 0.68 1.7 0 0 Z " fill="#F35445" transform="translate(679,244)"/>
<path d="M0 0 C2.44853501 0.94782 4.85803519 1.93262266 7.23046875 3.05859375 C8.41576172 3.61740234 8.41576172 3.61740234 9.625 4.1875 C10.38039063 4.55230469 11.13578125 4.91710937 11.9140625 5.29296875 C14.15090574 6.28527056 14.15090574 6.28527056 17 5 C17.66 5.66 18.32 6.32 19 7 C18.67 7.33 18.34 7.66 18 8 C18.99 8.66 19.98 9.32 21 10 C15.63190255 9.50143624 11.8280922 8.17472558 7.125 5.5625 C5.99320313 4.94503906 4.86140625 4.32757812 3.6953125 3.69140625 C1 2 1 2 0 0 Z " fill="#F81C17" transform="translate(533,803)"/>
<path d="M0 0 C1.65 0 3.3 0 5 0 C5 1.65 5 3.3 5 5 C4.67 5 4.34 5 4 5 C3.67 11.6 3.34 18.2 3 25 C2.67 25 2.34 25 2 25 C2 17.08 2 9.16 2 1 C1.34 0.67 0.68 0.34 0 0 Z " fill="#BBE4E3" transform="translate(494,722)"/>
<path d="M0 0 C0.66 0 1.32 0 2 0 C2.433125 1.093125 2.86625 2.18625 3.3125 3.3125 C4.49495641 6.09408793 5.60800043 8.06361939 8 10 C7.67 10.66 7.34 11.32 7 12 C4.03 9.36 1.06 6.72 -2 4 C-1.34 2.68 -0.68 1.36 0 0 Z " fill="#B6E9E9" transform="translate(523,668)"/>
<path d="M0 0 C2.33944736 0.28730055 4.6739143 0.61936779 7 1 C6.67 1.66 6.34 2.32 6 3 C4.68 3 3.36 3 2 3 C2 3.99 2 4.98 2 6 C1.01 6 0.02 6 -1 6 C-1.042721 4.33388095 -1.04063832 2.66617115 -1 1 C-0.67 0.67 -0.34 0.34 0 0 Z " fill="#BDEAE8" transform="translate(525,722)"/>
<path d="M0 0 C3.42931954 3.7559214 4.56429083 8.23466745 6 13 C5.34 13 4.68 13 4 13 C3.13372601 11.40233897 2.28233535 9.79660056 1.4375 8.1875 C0.96183594 7.29417969 0.48617187 6.40085937 -0.00390625 5.48046875 C-1 3 -1 3 0 0 Z " fill="#F25344" transform="translate(702,279)"/>
<path d="M0 0 C3.25543229 0.34879632 4.01873107 1.02133261 6.25 3.5625 C6.8275 4.366875 7.405 5.17125 8 6 C5 6 5 6 3.61328125 4.6875 C2.40885417 3.125 1.20442708 1.5625 0 0 Z " fill="#F25549" transform="translate(487,655)"/>
<path d="M0 0 C1.65 0 3.3 0 5 0 C5 0.33 5 0.66 5 1 C3.35 1 1.7 1 0 1 C0 0.67 0 0.34 0 0 Z " fill="#CAD1D6" transform="translate(548,667)"/>
<path d="M0 0 C0.99 0.495 0.99 0.495 2 1 C1.34 1.66 0.68 2.32 0 3 C0 2.01 0 1.02 0 0 Z " fill="#BAE4EB" transform="translate(479,867)"/>
<path d="M0 0 C0.99 0.33 1.98 0.66 3 1 C2.01 1.33 1.02 1.66 0 2 C0 1.34 0 0.68 0 0 Z " fill="#BDE8ED" transform="translate(416,862)"/>
<path d="M0 0 C4 1 4 1 4 1 Z " fill="#BBE6EB" transform="translate(618,860)"/>
<path d="M0 0 C0.99 0.495 0.99 0.495 2 1 C1.67 1.66 1.34 2.32 1 3 C0.67 2.01 0.34 1.02 0 0 Z " fill="#F56454" transform="translate(330,475)"/>
<path d="M0 0 C3 1 3 1 3 1 Z " fill="#BAE5EB" transform="translate(541,867)"/>
<path d="M0 0 C3 1 3 1 3 1 Z " fill="#BDE7EB" transform="translate(596,863)"/>
<path d="M0 0 C3 1 3 1 3 1 Z " fill="#BEE8EE" transform="translate(424,863)"/>
<path d="M0 0 C3 1 3 1 3 1 Z " fill="#BAE5EC" transform="translate(680,847)"/>
<path d="M0 0 C3 1 3 1 3 1 Z " fill="#BAE6EC" transform="translate(328,843)"/>
<path d="M0 0 C0.33 0.66 0.66 1.32 1 2 C0.34 1.67 -0.32 1.34 -1 1 C-0.67 0.67 -0.34 0.34 0 0 Z " fill="#B8E2E8" transform="translate(306,835)"/>
<path d="M0 0 C3 1 3 1 3 1 Z " fill="#BEE6EC" transform="translate(360,688)"/>
<path d="" fill="#D58D87" transform="translate(0,0)"/>
<path d="M0 0 C3 1 3 1 3 1 Z " fill="#FD6A59" transform="translate(589,295)"/>
<path d="M0 0 C2 1 2 1 2 1 Z " fill="#BDE5ED" transform="translate(592,863)"/>
<path d="M0 0 C2 1 2 1 2 1 Z " fill="#BBE6ED" transform="translate(648,855)"/>
<path d="M0 0 C2 1 2 1 2 1 Z " fill="#BAE7F0" transform="translate(376,855)"/>
<path d="" fill="#BBE6EB" transform="translate(0,0)"/>
<path d="M0 0 C2 1 2 1 2 1 Z " fill="#BCE8EE" transform="translate(656,853)"/>
<path d="" fill="#B5E0E6" transform="translate(0,0)"/>
<path d="" fill="#B6E1E7" transform="translate(0,0)"/>
<path d="" fill="#B7E2E7" transform="translate(0,0)"/>
<path d="M0 0 C2 1 2 1 2 1 Z " fill="#BEE4E9" transform="translate(325,704)"/>
<path d="M0 0 C2 1 2 1 2 1 Z " fill="#C2EAEE" transform="translate(386,680)"/>
<path d="M0 0 C2 1 2 1 2 1 Z " fill="#C1E4EA" transform="translate(595,672)"/>
<path d="M0 0 C2 1 2 1 2 1 Z " fill="#C8DEE4" transform="translate(452,668)"/>
<path d="M0 0 C2 1 2 1 2 1 Z " fill="#C6DFE3" transform="translate(449,668)"/>
<path d="M0 0 C2 1 2 1 2 1 Z " fill="#D2B3B3" transform="translate(531,666)"/>
<path d="" fill="#D1C1C3" transform="translate(0,0)"/>
<path d="" fill="#F76756" transform="translate(0,0)"/>
<path d="M0 0 C2 1 2 1 2 1 Z " fill="#FB6858" transform="translate(420,420)"/>
<path d="" fill="#EF6455" transform="translate(0,0)"/>
<path d="" fill="#FC685A" transform="translate(0,0)"/>
<path d="" fill="#FB6A5A" transform="translate(0,0)"/>
<path d="" fill="#FC685B" transform="translate(0,0)"/>
<path d="" fill="#FC6958" transform="translate(0,0)"/>
<path d="M0 0 C2 1 2 1 2 1 Z " fill="#FA6959" transform="translate(438,287)"/>
<path d="M0 0 C2 1 2 1 2 1 Z " fill="#FC6B59" transform="translate(572,279)"/>
<path d="M0 0 C2 1 2 1 2 1 Z " fill="#FB6A58" transform="translate(479,263)"/>
<path d="M0 0 C2 1 2 1 2 1 Z " fill="#FC6A58" transform="translate(502,259)"/>
<path d="M0 0 C2 1 2 1 2 1 Z " fill="#F66555" transform="translate(435,169)"/>
<path d="M0 0 C2 1 2 1 2 1 Z " fill="#F46758" transform="translate(464,160)"/>
<path d="M0 0 C2 1 2 1 2 1 Z " fill="#F46956" transform="translate(484,157)"/>
<path d="M0 0 C2 1 2 1 2 1 Z " fill="#F36657" transform="translate(481,157)"/>
<path d="M0 0 C2 1 2 1 2 1 Z " fill="#F46656" transform="translate(524,156)"/>
<path d="" fill="#BBE5EB" transform="translate(0,0)"/>
<path d="" fill="#BAE5EB" transform="translate(0,0)"/>
<path d="" fill="#BCE4ED" transform="translate(0,0)"/>
<path d="" fill="#BEE5ED" transform="translate(0,0)"/>
<path d="" fill="#BCE6EC" transform="translate(0,0)"/>
<path d="" fill="#BEE7EF" transform="translate(0,0)"/>
<path d="" fill="#BEE7ED" transform="translate(0,0)"/>
<path d="" fill="#BBE4ED" transform="translate(0,0)"/>
<path d="" fill="#BCE5E9" transform="translate(0,0)"/>
<path d="" fill="#BDE7ED" transform="translate(0,0)"/>
<path d="" fill="#BDE4EA" transform="translate(0,0)"/>
<path d="" fill="#BEE6EE" transform="translate(0,0)"/>
<path d="" fill="#BCE6EC" transform="translate(0,0)"/>
<path d="" fill="#BBE5EC" transform="translate(0,0)"/>
<path d="" fill="#BFE8EF" transform="translate(0,0)"/>
<path d="" fill="#BAE6EC" transform="translate(0,0)"/>
<path d="" fill="#BBE7ED" transform="translate(0,0)"/>
<path d="" fill="#BBE5EB" transform="translate(0,0)"/>
<path d="" fill="#BBE6EA" transform="translate(0,0)"/>
<path d="" fill="#BAE6EB" transform="translate(0,0)"/>
<path d="" fill="#BCE6EC" transform="translate(0,0)"/>
<path d="" fill="#BCE4EC" transform="translate(0,0)"/>
<path d="" fill="#BDE7EC" transform="translate(0,0)"/>
<path d="" fill="#BBE7EB" transform="translate(0,0)"/>
<path d="" fill="#BDE6ED" transform="translate(0,0)"/>
<path d="" fill="#B9E6EB" transform="translate(0,0)"/>
<path d="" fill="#B9E4EA" transform="translate(0,0)"/>
<path d="" fill="#BAE6EA" transform="translate(0,0)"/>
<path d="" fill="#BAE4EC" transform="translate(0,0)"/>
<path d="" fill="#BDE5EB" transform="translate(0,0)"/>
<path d="" fill="#B9E6ED" transform="translate(0,0)"/>
<path d="" fill="#B9E5E8" transform="translate(0,0)"/>
<path d="" fill="#BAE6EC" transform="translate(0,0)"/>
<path d="" fill="#B8E6EB" transform="translate(0,0)"/>
<path d="" fill="#B6E1E8" transform="translate(0,0)"/>
<path d="" fill="#B8E3EA" transform="translate(0,0)"/>
<path d="" fill="#BAE2E8" transform="translate(0,0)"/>
<path d="" fill="#B9E2EA" transform="translate(0,0)"/>
<path d="" fill="#B7E3EC" transform="translate(0,0)"/>
<path d="" fill="#B5DFEB" transform="translate(0,0)"/>
<path d="" fill="#B8E4E8" transform="translate(0,0)"/>
<path d="" fill="#BAE4E8" transform="translate(0,0)"/>
<path d="" fill="#B8E5EB" transform="translate(0,0)"/>
<path d="" fill="#B9E6EC" transform="translate(0,0)"/>
<path d="" fill="#BCE5EB" transform="translate(0,0)"/>
<path d="" fill="#B5DFE8" transform="translate(0,0)"/>
<path d="" fill="#B7E4ED" transform="translate(0,0)"/>
<path d="" fill="#B8E4E8" transform="translate(0,0)"/>
<path d="" fill="#B7E0E5" transform="translate(0,0)"/>
<path d="" fill="#B6E0E8" transform="translate(0,0)"/>
<path d="" fill="#B7E0E5" transform="translate(0,0)"/>
<path d="" fill="#B7DFE5" transform="translate(0,0)"/>
<path d="" fill="#B8E2EC" transform="translate(0,0)"/>
<path d="" fill="#B7E1E7" transform="translate(0,0)"/>
<path d="" fill="#B4DEE7" transform="translate(0,0)"/>
<path d="" fill="#BAE5EC" transform="translate(0,0)"/>
<path d="" fill="#B6E0E6" transform="translate(0,0)"/>
<path d="" fill="#B7E1E8" transform="translate(0,0)"/>
<path d="" fill="#B8E5E7" transform="translate(0,0)"/>
<path d="" fill="#BBE3EB" transform="translate(0,0)"/>
<path d="" fill="#B4E3E7" transform="translate(0,0)"/>
<path d="" fill="#B9E4E7" transform="translate(0,0)"/>
<path d="" fill="#B7E5EA" transform="translate(0,0)"/>
<path d="" fill="#B9E5E7" transform="translate(0,0)"/>
<path d="" fill="#BAE5EB" transform="translate(0,0)"/>
<path d="" fill="#BAE3E8" transform="translate(0,0)"/>
<path d="" fill="#BFE7EE" transform="translate(0,0)"/>
<path d="" fill="#BCE4E9" transform="translate(0,0)"/>
<path d="" fill="#B9E6EC" transform="translate(0,0)"/>
<path d="" fill="#BFE4EB" transform="translate(0,0)"/>
<path d="" fill="#BBE4EC" transform="translate(0,0)"/>
<path d="" fill="#BCE5EA" transform="translate(0,0)"/>
<path d="" fill="#B8E5EA" transform="translate(0,0)"/>
<path d="" fill="#BCE3EC" transform="translate(0,0)"/>
<path d="" fill="#BCE4EC" transform="translate(0,0)"/>
<path d="" fill="#BCE9ED" transform="translate(0,0)"/>
<path d="" fill="#BAE5EC" transform="translate(0,0)"/>
<path d="" fill="#BCE4E9" transform="translate(0,0)"/>
<path d="" fill="#BBE5EB" transform="translate(0,0)"/>
<path d="" fill="#BFE8EE" transform="translate(0,0)"/>
<path d="" fill="#BDEAEF" transform="translate(0,0)"/>
<path d="" fill="#C0E5E8" transform="translate(0,0)"/>
<path d="" fill="#C0E4EC" transform="translate(0,0)"/>
<path d="" fill="#BDE2EB" transform="translate(0,0)"/>
<path d="" fill="#BBE7EB" transform="translate(0,0)"/>
<path d="" fill="#BBE6E9" transform="translate(0,0)"/>
<path d="" fill="#BDE4E8" transform="translate(0,0)"/>
<path d="" fill="#C1E5EA" transform="translate(0,0)"/>
<path d="" fill="#C0E5EA" transform="translate(0,0)"/>
<path d="" fill="#C3E4E9" transform="translate(0,0)"/>
<path d="" fill="#C1E3E8" transform="translate(0,0)"/>
<path d="" fill="#BFE5EB" transform="translate(0,0)"/>
<path d="" fill="#C1E8EC" transform="translate(0,0)"/>
<path d="" fill="#BEE2E9" transform="translate(0,0)"/>
<path d="" fill="#C1E5EA" transform="translate(0,0)"/>
<path d="" fill="#BFE3E8" transform="translate(0,0)"/>
<path d="" fill="#C0E2E8" transform="translate(0,0)"/>
<path d="" fill="#C7E0E5" transform="translate(0,0)"/>
<path d="" fill="#C5E2E7" transform="translate(0,0)"/>
<path d="" fill="#C7DEE1" transform="translate(0,0)"/>
<path d="" fill="#C5DEE2" transform="translate(0,0)"/>
<path d="" fill="#C7E2E8" transform="translate(0,0)"/>
<path d="" fill="#C7DBE0" transform="translate(0,0)"/>
<path d="" fill="#C8D6DB" transform="translate(0,0)"/>
<path d="" fill="#CACDD2" transform="translate(0,0)"/>
<path d="" fill="#CADADD" transform="translate(0,0)"/>
<path d="" fill="#C9DBE0" transform="translate(0,0)"/>
<path d="" fill="#C8DCE1" transform="translate(0,0)"/>
<path d="" fill="#CAD4D7" transform="translate(0,0)"/>
<path d="" fill="#CFC4C6" transform="translate(0,0)"/>
<path d="" fill="#D6AEB3" transform="translate(0,0)"/>
<path d="" fill="#C9DDE2" transform="translate(0,0)"/>
<path d="" fill="#C7DBDF" transform="translate(0,0)"/>
<path d="" fill="#CAC8C8" transform="translate(0,0)"/>
<path d="" fill="#D69A98" transform="translate(0,0)"/>
<path d="" fill="#D59E9F" transform="translate(0,0)"/>
<path d="" fill="#D89995" transform="translate(0,0)"/>
<path d="" fill="#D8918E" transform="translate(0,0)"/>
<path d="" fill="#D78B85" transform="translate(0,0)"/>
<path d="" fill="#DB827C" transform="translate(0,0)"/>
<path d="" fill="#D67E75" transform="translate(0,0)"/>
<path d="" fill="#DB7A6F" transform="translate(0,0)"/>
<path d="" fill="#DD7970" transform="translate(0,0)"/>
<path d="" fill="#E3786F" transform="translate(0,0)"/>
<path d="" fill="#DC6F65" transform="translate(0,0)"/>
<path d="" fill="#E8796D" transform="translate(0,0)"/>
<path d="" fill="#F56D5F" transform="translate(0,0)"/>
<path d="" fill="#F56E60" transform="translate(0,0)"/>
<path d="" fill="#F16E5F" transform="translate(0,0)"/>
<path d="" fill="#F36F62" transform="translate(0,0)"/>
<path d="" fill="#F66F5D" transform="translate(0,0)"/>
<path d="" fill="#EF6D5F" transform="translate(0,0)"/>
<path d="" fill="#F16A5B" transform="translate(0,0)"/>
<path d="" fill="#F36E5F" transform="translate(0,0)"/>
<path d="" fill="#F36856" transform="translate(0,0)"/>
<path d="" fill="#F2665A" transform="translate(0,0)"/>
<path d="" fill="#F36659" transform="translate(0,0)"/>
<path d="" fill="#F26757" transform="translate(0,0)"/>
<path d="" fill="#F46553" transform="translate(0,0)"/>
<path d="" fill="#F46553" transform="translate(0,0)"/>
<path d="" fill="#DE5648" transform="translate(0,0)"/>
<path d="" fill="#F26353" transform="translate(0,0)"/>
<path d="" fill="#F36453" transform="translate(0,0)"/>
<path d="" fill="#F66554" transform="translate(0,0)"/>
<path d="" fill="#F56254" transform="translate(0,0)"/>
<path d="" fill="#FC6D5A" transform="translate(0,0)"/>
<path d="" fill="#FD6857" transform="translate(0,0)"/>
<path d="" fill="#FE6857" transform="translate(0,0)"/>
<path d="" fill="#FC6A59" transform="translate(0,0)"/>
<path d="" fill="#F16355" transform="translate(0,0)"/>
<path d="" fill="#FA6959" transform="translate(0,0)"/>
<path d="" fill="#FE6B5A" transform="translate(0,0)"/>
<path d="" fill="#FC6A59" transform="translate(0,0)"/>
<path d="" fill="#FD6C59" transform="translate(0,0)"/>
<path d="" fill="#E15247" transform="translate(0,0)"/>
<path d="" fill="#F96A5A" transform="translate(0,0)"/>
<path d="" fill="#DE5548" transform="translate(0,0)"/>
<path d="" fill="#F46354" transform="translate(0,0)"/>
<path d="" fill="#FC6C5B" transform="translate(0,0)"/>
<path d="" fill="#FB6B5A" transform="translate(0,0)"/>
<path d="" fill="#E15547" transform="translate(0,0)"/>
<path d="" fill="#F16254" transform="translate(0,0)"/>
<path d="" fill="#EE6255" transform="translate(0,0)"/>
<path d="" fill="#FD6A5A" transform="translate(0,0)"/>
<path d="" fill="#DD5448" transform="translate(0,0)"/>
<path d="" fill="#F36255" transform="translate(0,0)"/>
<path d="" fill="#DE544A" transform="translate(0,0)"/>
<path d="" fill="#FE685A" transform="translate(0,0)"/>
<path d="" fill="#F36355" transform="translate(0,0)"/>
<path d="" fill="#FB6C59" transform="translate(0,0)"/>
<path d="" fill="#FB6A5A" transform="translate(0,0)"/>
<path d="" fill="#FA685B" transform="translate(0,0)"/>
<path d="" fill="#FD6958" transform="translate(0,0)"/>
<path d="" fill="#FD685A" transform="translate(0,0)"/>
<path d="" fill="#FA6A59" transform="translate(0,0)"/>
<path d="" fill="#DD5648" transform="translate(0,0)"/>
<path d="" fill="#FD6A5B" transform="translate(0,0)"/>
<path d="" fill="#FC6758" transform="translate(0,0)"/>
<path d="" fill="#FD6A5C" transform="translate(0,0)"/>
<path d="" fill="#F9685A" transform="translate(0,0)"/>
<path d="" fill="#FE6C5B" transform="translate(0,0)"/>
<path d="" fill="#FC6958" transform="translate(0,0)"/>
<path d="" fill="#FC6C5B" transform="translate(0,0)"/>
<path d="" fill="#FB6A59" transform="translate(0,0)"/>
<path d="" fill="#F86754" transform="translate(0,0)"/>
<path d="" fill="#DF5549" transform="translate(0,0)"/>
<path d="" fill="#E05548" transform="translate(0,0)"/>
<path d="" fill="#FC6C5C" transform="translate(0,0)"/>
<path d="" fill="#FB6959" transform="translate(0,0)"/>
<path d="" fill="#FC6859" transform="translate(0,0)"/>
<path d="" fill="#F56655" transform="translate(0,0)"/>
<path d="" fill="#FD6A58" transform="translate(0,0)"/>
<path d="" fill="#FE695A" transform="translate(0,0)"/>
<path d="" fill="#F56758" transform="translate(0,0)"/>
<path d="" fill="#F46655" transform="translate(0,0)"/>
<path d="" fill="#F86455" transform="translate(0,0)"/>
<path d="" fill="#FD6A5A" transform="translate(0,0)"/>
<path d="" fill="#F36555" transform="translate(0,0)"/>
<path d="" fill="#FD6958" transform="translate(0,0)"/>
<path d="" fill="#F86555" transform="translate(0,0)"/>
<path d="" fill="#FC6858" transform="translate(0,0)"/>
<path d="" fill="#F26555" transform="translate(0,0)"/>
<path d="" fill="#FF6B5B" transform="translate(0,0)"/>
<path d="" fill="#E2554A" transform="translate(0,0)"/>
<path d="" fill="#F46557" transform="translate(0,0)"/>
<path d="" fill="#FE6858" transform="translate(0,0)"/>
<path d="" fill="#FB6859" transform="translate(0,0)"/>
<path d="" fill="#E35749" transform="translate(0,0)"/>
<path d="" fill="#FA6959" transform="translate(0,0)"/>
<path d="" fill="#FC6B59" transform="translate(0,0)"/>
<path d="" fill="#FE6B5A" transform="translate(0,0)"/>
<path d="" fill="#FC6C5A" transform="translate(0,0)"/>
<path d="" fill="#E15548" transform="translate(0,0)"/>
<path d="" fill="#FF6A5A" transform="translate(0,0)"/>
<path d="" fill="#FF6C5A" transform="translate(0,0)"/>
<path d="" fill="#FC6B5B" transform="translate(0,0)"/>
<path d="" fill="#FF6B5B" transform="translate(0,0)"/>
<path d="" fill="#FF695A" transform="translate(0,0)"/>
<path d="" fill="#FF6A5C" transform="translate(0,0)"/>
<path d="" fill="#FE6B5A" transform="translate(0,0)"/>
<path d="" fill="#FD6959" transform="translate(0,0)"/>
<path d="" fill="#FD6B59" transform="translate(0,0)"/>
<path d="" fill="#DF564B" transform="translate(0,0)"/>
<path d="" fill="#E55648" transform="translate(0,0)"/>
<path d="" fill="#F26357" transform="translate(0,0)"/>
<path d="" fill="#F36653" transform="translate(0,0)"/>
<path d="" fill="#E45A4B" transform="translate(0,0)"/>
<path d="" fill="#EA5C4C" transform="translate(0,0)"/>
<path d="" fill="#EA5F4E" transform="translate(0,0)"/>
<path d="" fill="#F06454" transform="translate(0,0)"/>
<path d="" fill="#EA5A4B" transform="translate(0,0)"/>
<path d="" fill="#F56654" transform="translate(0,0)"/>
<path d="" fill="#F26554" transform="translate(0,0)"/>
<path d="" fill="#F06656" transform="translate(0,0)"/>
<path d="" fill="#F36855" transform="translate(0,0)"/>
<path d="" fill="#F46253" transform="translate(0,0)"/>
<path d="" fill="#F56654" transform="translate(0,0)"/>
<path d="" fill="#F16251" transform="translate(0,0)"/>
<path d="" fill="#EF5F4E" transform="translate(0,0)"/>
<path d="" fill="#F06152" transform="translate(0,0)"/>
<path d="" fill="#F36453" transform="translate(0,0)"/>
<path d="" fill="#F66856" transform="translate(0,0)"/>
<path d="" fill="#F46353" transform="translate(0,0)"/>
<path d="" fill="#F66855" transform="translate(0,0)"/>
<path d="" fill="#F36654" transform="translate(0,0)"/>
<path d="" fill="#F56454" transform="translate(0,0)"/>
<path d="" fill="#F26352" transform="translate(0,0)"/>
<path d="" fill="#F46856" transform="translate(0,0)"/>
</svg>
