<svg width="13" height="12" viewBox="0 0 13 12" fill="none" xmlns="http://www.w3.org/2000/svg">
<g id="notifications">
<mask id="mask0_7662_31292" style="mask-type:alpha" maskUnits="userSpaceOnUse" x="0" y="0" width="13" height="12">
<rect id="Bounding box" x="0.350586" width="12" height="12" fill="#D9D9D9"/>
</mask>
<g mask="url(#mask0_7662_31292)">
<path id="notifications_2" d="M2.85132 9.50146C2.70965 9.50146 2.5909 9.45355 2.49507 9.35771C2.39924 9.26188 2.35132 9.14313 2.35132 9.00146C2.35132 8.8598 2.39924 8.74105 2.49507 8.64522C2.5909 8.54938 2.70965 8.50146 2.85132 8.50146H3.35132V5.00146C3.35132 4.3098 3.55965 3.69521 3.97632 3.15771C4.39298 2.62021 4.93465 2.26813 5.60132 2.10146V1.75146C5.60132 1.54313 5.67423 1.36605 5.82007 1.22021C5.9659 1.07438 6.14298 1.00146 6.35132 1.00146C6.55965 1.00146 6.73673 1.07438 6.88257 1.22021C7.0284 1.36605 7.10132 1.54313 7.10132 1.75146V2.10146C7.76798 2.26813 8.30965 2.62021 8.72632 3.15771C9.14298 3.69521 9.35132 4.3098 9.35132 5.00146V8.50146H9.85132C9.99298 8.50146 10.1117 8.54938 10.2076 8.64522C10.3034 8.74105 10.3513 8.8598 10.3513 9.00146C10.3513 9.14313 10.3034 9.26188 10.2076 9.35771C10.1117 9.45355 9.99298 9.50146 9.85132 9.50146H2.85132ZM6.35132 11.0015C6.07632 11.0015 5.8409 10.9035 5.64507 10.7077C5.44923 10.5119 5.35132 10.2765 5.35132 10.0015H7.35132C7.35132 10.2765 7.2534 10.5119 7.05757 10.7077C6.86173 10.9035 6.62632 11.0015 6.35132 11.0015Z" fill="#FFDC40"/>
</g>
</g>
</svg>
