<?xml version="1.0" encoding="UTF-8"?>
<svg version="1.1" xmlns="http://www.w3.org/2000/svg" width="216" height="216">
<path d="M0 0 C71.28 0 142.56 0 216 0 C216 71.28 216 142.56 216 216 C144.72 216 73.44 216 0 216 C0 144.72 0 73.44 0 0 Z " fill="transparent" transform="translate(0,0)"/>
<path d="M0 0 C2.85742188 -0.37231445 2.85742188 -0.37231445 6.46875 -0.36328125 C7.76167969 -0.36263672 9.05460937 -0.36199219 10.38671875 -0.36132812 C11.06138184 -0.35302979 11.73604492 -0.34473145 12.43115234 -0.33618164 C14.49225951 -0.3125886 16.5520734 -0.31561974 18.61328125 -0.32226562 C28.7332276 -0.2667724 28.7332276 -0.2667724 31 2 C31.30675232 4.89967757 31.51173371 7.71783178 31.625 10.625 C31.66367188 11.42679688 31.70234375 12.22859375 31.7421875 13.0546875 C31.83653931 15.03607556 31.91936215 17.01800645 32 19 C33.35351562 19.17015625 33.35351562 19.17015625 34.734375 19.34375 C37.88657559 19.97720658 39.57445219 20.82522961 42.25 22.5 C44.51136947 23.71969155 44.51136947 23.71969155 47 24 C49.93922179 22.54788447 52.16973564 20.81977228 54.640625 18.671875 C57.47253284 16.66515885 58.59755713 16.58808662 62 17 C64.00463867 18.40527344 64.00463867 18.40527344 65.91796875 20.359375 C66.61470703 21.06320313 67.31144531 21.76703125 68.02929688 22.4921875 C68.74150391 23.23726562 69.45371094 23.98234375 70.1875 24.75 C71.27321289 25.84441406 71.27321289 25.84441406 72.38085938 26.9609375 C78.4265011 33.14717554 78.4265011 33.14717554 80 37 C79.69652279 40.4866159 78.12055964 42.16817632 75.8125 44.6875 C73.94886184 47.07153353 73.00591785 48.28985841 72.98046875 51.34375 C73.49543627 53.66691173 74.13984412 55.78191284 75 58 C75.3403125 59.33224609 75.3403125 59.33224609 75.6875 60.69140625 C76.8313763 63.32189444 76.8313763 63.32189444 79.96875 63.890625 C81.71671875 64.06851563 81.71671875 64.06851563 83.5 64.25 C89.92045455 64.96022727 89.92045455 64.96022727 92 66 C93.57898695 70.73696086 93.18447895 75.53943413 93.1875 80.5 C93.19974609 81.55832031 93.21199219 82.61664063 93.22460938 83.70703125 C93.22654297 84.72152344 93.22847656 85.73601562 93.23046875 86.78125 C93.23457764 87.71001953 93.23868652 88.63878906 93.24291992 89.59570312 C93 92 93 92 91 95 C85.82139081 96.66768771 81.41223132 97.22550964 76 97 C75.86722656 97.66386719 75.73445312 98.32773438 75.59765625 99.01171875 C74 107 74 107 73.25390625 109.61328125 C72.74581061 112.02580117 72.74581061 112.02580117 74.1796875 113.84375 C74.73914063 114.3903125 75.29859375 114.936875 75.875 115.5 C78.61437411 118.20115028 79.79280416 120.087655 80 124 C78.953125 125.8515625 78.953125 125.8515625 77.25 127.625 C76.60675781 128.29789063 75.96351563 128.97078125 75.30078125 129.6640625 C74.54152344 130.43492187 73.78226563 131.20578125 73 132 C72.09560044 132.98509571 71.19336441 133.97218082 70.29296875 134.9609375 C69.34258475 135.9753084 68.39076624 136.98833723 67.4375 138 C66.54933594 138.94875 65.66117188 139.8975 64.74609375 140.875 C62 143 62 143 58.94140625 143.5390625 C55.43687719 142.89679821 54.07598521 141.79231946 51.5 139.375 C49.25211467 137.44094154 49.25211467 137.44094154 47 136 C43.78518155 136.1824603 43.78518155 136.1824603 41 138 C39.75640233 138.55620824 38.50614097 139.09773095 37.25 139.625 C36.1775 140.07875 35.105 140.5325 34 141 C33.34 141 32.68 141 32 141 C31.67 146.28 31.34 151.56 31 157 C24.86348125 159.4546075 19.9010355 159.33099783 13.375 159.3125 C12.2303125 159.32861328 11.085625 159.34472656 9.90625 159.36132812 C8.26269531 159.36229492 8.26269531 159.36229492 6.5859375 159.36328125 C5.5861084 159.36626221 4.5862793 159.36924316 3.55615234 159.37231445 C1 159 1 159 -0.84350586 157.67382812 C-2.69510274 154.99395728 -2.06990877 152.37549572 -1.9375 149.1875 C-1.9669166 145.43500844 -1.9669166 145.43500844 -3 142 C-6.59053238 138.82167376 -10.35312004 137.12670091 -15 136 C-19.23405139 136.35541307 -21.76881805 139.07504507 -24.90234375 141.72265625 C-27.55752162 143.3394964 -28.9248014 143.34974638 -32 143 C-34.11230469 141.53466797 -34.11230469 141.53466797 -36.171875 139.4921875 C-37.29142578 138.38230469 -37.29142578 138.38230469 -38.43359375 137.25 C-39.58021484 136.074375 -39.58021484 136.074375 -40.75 134.875 C-41.52988281 134.11445313 -42.30976562 133.35390625 -43.11328125 132.5703125 C-46.27547263 129.38062381 -48.65491428 126.92422011 -50.23828125 122.68359375 C-49.93435229 119.26065614 -48.99532558 118.41528357 -46.4375 116.1875 C-43.63926455 113.38892118 -43.63926455 113.38892118 -42.90625 109.6640625 C-43.4346172 107.32526064 -44.10219474 105.2225668 -45 103 C-45.21785156 102.11957031 -45.43570313 101.23914063 -45.66015625 100.33203125 C-46.85217765 97.65443486 -46.85217765 97.65443486 -50.1875 96.9609375 C-52.0746875 96.67089844 -52.0746875 96.67089844 -54 96.375 C-57.8125 95.7734375 -57.8125 95.7734375 -61 95 C-64.18937038 90.21594443 -63.32814631 85.06078398 -63.3125 79.4375 C-63.32861328 78.27541016 -63.34472656 77.11332031 -63.36132812 75.91601562 C-63.36197266 74.80806641 -63.36261719 73.70011719 -63.36328125 72.55859375 C-63.36626221 71.54079834 -63.36924316 70.52300293 -63.37231445 69.47436523 C-63.1880188 68.24955444 -63.1880188 68.24955444 -63 67 C-59.4602993 64.64019954 -57.00893712 64.41399192 -52.8125 63.875 C-50.90404297 63.62363281 -50.90404297 63.62363281 -48.95703125 63.3671875 C-47.98121094 63.24601562 -47.00539063 63.12484375 -46 63 C-45.46706165 61.25364835 -44.94909337 59.50272348 -44.4375 57.75 C-44.00244141 56.28820312 -44.00244141 56.28820312 -43.55859375 54.796875 C-42.98839741 51.94190591 -42.89596604 50.65297713 -44 48 C-45.51499378 45.94042738 -47.15047406 44.03297591 -48.8203125 42.09765625 C-50 40 -50 40 -49.86328125 37.4765625 C-48.33789221 33.10055954 -45.14575623 30.31072356 -42 27 C-41.19433594 26.08476563 -40.38867188 25.16953125 -39.55859375 24.2265625 C-38.71425781 23.30617188 -37.86992188 22.38578125 -37 21.4375 C-36.21625 20.56996094 -35.4325 19.70242187 -34.625 18.80859375 C-32 17 -32 17 -28.37890625 17.05859375 C-25.27379053 17.92371848 -24.03361167 18.33017438 -21.9375 20.625 C-19.24886918 23.30781189 -19.24886918 23.30781189 -16.0625 23 C-12.86767893 22.00832226 -12.86767893 22.00832226 -9.375 20.4375 C-6 19 -6 19 -2 19 C-2.02320313 17.87980469 -2.04640625 16.75960937 -2.0703125 15.60546875 C-2.08907237 14.13281916 -2.10727234 12.66016237 -2.125 11.1875 C-2.14175781 10.44951172 -2.15851563 9.71152344 -2.17578125 8.95117188 C-2.21074628 5.08753574 -2.19397555 3.29096332 0 0 Z " fill="white" transform="translate(92,37)"/>
<path d="M0 0 C6.89935633 4.96713191 12.70579552 10.62673592 15 19 C15.49631078 23.73363078 15.40377945 28.26270025 15 33 C14.90912109 34.13115234 14.90912109 34.13115234 14.81640625 35.28515625 C13.58482128 42.68987082 8.20428965 49.57666721 2.35546875 54 C-6.3933112 59.32868588 -15.5988787 60.69879539 -25.671875 58.38671875 C-35.00525321 54.63019951 -41.86858715 47.42145768 -45.95703125 38.33984375 C-48.5894804 29.91009085 -48.21706744 21.69175717 -44.625 13.625 C-40.37984436 6.20598978 -33.7048967 -1.14019714 -25.25390625 -3.6328125 C-16.30964308 -5.08993683 -7.87854134 -4.72967449 0 0 Z " fill="#6348FA" transform="translate(123,89)"/>
</svg>
